<svg  viewBox="0 0 20 20" fill="none" xmlns="http://www.w3.org/2000/svg">
<path d="M13.3339 13.3349C13.237 13.091 13.0866 12.8719 12.8938 12.6938C12.5689 12.3918 12.1418 12.2239 11.6983 12.2236H8.30101C7.85721 12.2239 7.42991 12.3919 7.10468 12.6938C6.9123 12.8723 6.76195 13.0913 6.6645 13.3349M9.99922 17.5033C14.1431 17.5033 17.5023 14.1441 17.5023 10.0002C17.5023 5.85633 14.1431 2.49707 9.99922 2.49707C5.85536 2.49707 2.49609 5.85633 2.49609 10.0002C2.49609 14.1441 5.85536 17.5033 9.99922 17.5033ZM9.99922 10.417C11.0352 10.417 11.875 9.57722 11.875 8.54125C11.875 7.50529 11.0352 6.66547 9.99922 6.66547C8.96325 6.66547 8.12344 7.50529 8.12344 8.54125C8.12344 9.57722 8.96325 10.417 9.99922 10.417Z" stroke="white" stroke-width="1.5" stroke-linecap="round" stroke-linejoin="round"/>
</svg>
