<svg width="20" height="20" viewBox="0 0 20 20" fill="none" xmlns="http://www.w3.org/2000/svg">
<path d="M18.1673 6.66669C18.1673 6.66669 18.0045 5.5176 17.5032 5.01304C16.8684 4.34898 16.1588 4.34572 15.8333 4.30666C13.5026 4.13739 10.0032 4.13739 10.0032 4.13739H9.9967C9.9967 4.13739 6.49736 4.13739 4.16663 4.30666C3.84111 4.34572 3.13147 4.34898 2.4967 5.01304C1.9954 5.5176 1.8359 6.66669 1.8359 6.66669C1.8359 6.66669 1.66663 8.0176 1.66663 9.36526V10.6283C1.66663 11.9759 1.83264 13.3268 1.83264 13.3268C1.83264 13.3268 1.9954 14.4759 2.49345 14.9805C3.12821 15.6446 3.96155 15.6218 4.33264 15.6934C5.66728 15.8203 9.99996 15.8594 9.99996 15.8594C9.99996 15.8594 13.5026 15.8529 15.8333 15.6869C16.1588 15.6478 16.8684 15.6446 17.5032 14.9805C18.0045 14.4759 18.1673 13.3268 18.1673 13.3268C18.1673 13.3268 18.3333 11.9792 18.3333 10.6283V9.36526C18.3333 8.0176 18.1673 6.66669 18.1673 6.66669ZM8.27795 12.1615V7.47723L12.7799 9.82749L8.27795 12.1615Z" fill="#63686E"/>
</svg>
