<svg xmlns="http://www.w3.org/2000/svg" width="40" height="40" viewBox="0 0 40 40" fill="none"><path fill-rule="evenodd" clip-rule="evenodd" d="M33.3333 36.6667H23.3333C21.4917 36.6667 20 35.175 20 33.3333V23.3333C20 21.4917 21.4917 20 23.3333 20H33.3333C35.175 20 36.6667 21.4917 36.6667 23.3333V33.3333C36.6667 35.175 35.175 36.6667 33.3333 36.6667Z" stroke="#202F29" stroke-width="2.5" stroke-linecap="round" stroke-linejoin="round"></path><path d="M19.9931 27.0652C18.9264 27.3152 17.8164 27.4668 16.6664 27.4668C15.7181 27.4668 14.7931 27.3735 13.8981 27.2018L8.66635 29.7785C8.66635 27.9952 8.66301 26.2968 8.66468 25.0368C5.43635 22.8402 3.33301 19.3568 3.33301 15.4002C3.33301 8.70516 9.32968 3.3335 16.6664 3.3335C24.0031 3.3335 29.9997 8.70516 29.9997 15.4002C29.9997 17.0352 29.6364 18.5885 28.9897 20.0068" stroke="#202F29" stroke-width="2.5" stroke-linecap="square" stroke-linejoin="round"></path><path d="M16.9615 15.3503C17.1248 15.5136 17.1248 15.777 16.9615 15.9403C16.7982 16.1036 16.5348 16.1036 16.3715 15.9403C16.2082 15.777 16.2082 15.5136 16.3715 15.3503C16.5348 15.1886 16.7982 15.1886 16.9615 15.3503Z" stroke="#202F29" stroke-width="2.5" stroke-linecap="round" stroke-linejoin="round"></path><path d="M22.8869 15.3503C23.0502 15.5136 23.0502 15.777 22.8869 15.9403C22.7235 16.1036 22.4602 16.1036 22.2969 15.9403C22.1335 15.777 22.1335 15.5136 22.2969 15.3503C22.4602 15.1886 22.7252 15.1886 22.8869 15.3503Z" stroke="#202F29" stroke-width="2.5" stroke-linecap="round" stroke-linejoin="round"></path><path d="M11.0347 15.3503C11.198 15.5136 11.198 15.777 11.0347 15.9403C10.8714 16.1036 10.608 16.1036 10.4447 15.9403C10.2814 15.777 10.2814 15.5136 10.4447 15.3503C10.608 15.1886 10.873 15.1886 11.0347 15.3503Z" stroke="#202F29" stroke-width="2.5" stroke-linecap="round" stroke-linejoin="round"></path><path d="M32.0361 26.4819L27.4061 31.1119L24.6294 28.3336" stroke="#202F29" stroke-width="2.549" stroke-linecap="square" stroke-linejoin="round"></path></svg> 