<svg viewBox="0 0 18 18" fill="none" xmlns="http://www.w3.org/2000/svg">
<path d="M0.666504 17.3336L1.83803 13.0538C1.11511 11.801 0.735254 10.3809 0.735948 8.92461C0.738032 4.37184 4.44288 0.666992 8.99496 0.666992C11.204 0.667687 13.2776 1.5281 14.8373 3.08921C16.3963 4.65032 17.2547 6.72531 17.254 8.93225C17.2519 13.4857 13.547 17.1906 8.99496 17.1906C7.61302 17.1899 6.25121 16.8433 5.04497 16.185L0.666504 17.3336ZM5.24774 14.6899C6.41163 15.3808 7.52274 15.7947 8.99218 15.7954C12.7755 15.7954 15.8574 12.7163 15.8595 8.93086C15.8609 5.13781 12.7936 2.06282 8.99774 2.06143C5.21163 2.06143 2.13178 5.14059 2.13039 8.92531C2.1297 10.4704 2.58247 11.6274 3.34289 12.8378L2.64914 15.3711L5.24774 14.6899ZM13.1554 10.8954C13.104 10.8093 12.9665 10.7579 12.7595 10.6545C12.5533 10.551 11.5387 10.0517 11.3491 9.98294C11.1602 9.91419 11.0227 9.87947 10.8845 10.0864C10.747 10.2927 10.3512 10.7579 10.2311 10.8954C10.1109 11.0329 9.99009 11.0503 9.78384 10.9468C9.57759 10.8434 8.91232 10.626 8.12413 9.92253C7.51093 9.37531 7.09635 8.69961 6.97621 8.49267C6.85607 8.28642 6.96371 8.17461 7.06649 8.07184C7.15954 7.97948 7.27274 7.83086 7.37621 7.71003C7.48107 7.59059 7.5151 7.50448 7.58454 7.36628C7.65329 7.22878 7.61927 7.10795 7.56718 7.00448C7.5151 6.9017 7.1026 5.88573 6.93107 5.47254C6.76302 5.07045 6.59288 5.12462 6.46649 5.11837L6.07066 5.11143C5.93316 5.11143 5.70955 5.16281 5.52066 5.36976C5.33177 5.5767 4.79844 6.07531 4.79844 7.09128C4.79844 8.10725 5.53802 9.0885 5.6408 9.226C5.74427 9.3635 7.09566 11.4482 9.16579 12.342C9.65815 12.5545 10.0429 12.6815 10.3422 12.7767C10.8366 12.9336 11.2866 12.9114 11.6422 12.8586C12.0387 12.7996 12.863 12.3593 13.0352 11.8774C13.2074 11.3947 13.2074 10.9816 13.1554 10.8954Z" fill="#008000"/>
</svg>
