<svg viewBox="0 0 16 16" fill="none" xmlns="http://www.w3.org/2000/svg">
<path d="M9.05303 6.94676C9.63439 7.52812 9.63439 8.4707 9.05303 9.05206C8.47167 9.63342 7.5291 9.63342 6.94774 9.05206C6.36638 8.4707 6.36638 7.52812 6.94774 6.94676C7.5291 6.3654 8.47167 6.3654 9.05303 6.94676" stroke="#FB3748" stroke-width="1.25" stroke-linecap="round" stroke-linejoin="round"/>
<path d="M9.73828 11.2275C10.8856 10.6082 11.6656 9.39482 11.6656 7.99948C11.6656 6.60415 10.8856 5.39082 9.73828 4.77148" stroke="#FB3748" stroke-width="1.25" stroke-linecap="round" stroke-linejoin="round"/>
<path d="M6.26132 4.77148C5.11398 5.39082 4.33398 6.60415 4.33398 7.99948C4.33398 9.39482 5.11398 10.6082 6.26132 11.2275" stroke="#FB3748" stroke-width="1.25" stroke-linecap="round" stroke-linejoin="round"/>
<path d="M11.4297 12.9184C12.9824 11.8337 13.9997 10.0371 13.9997 7.99972C13.9997 5.96239 12.9824 4.16572 11.4297 3.08105" stroke="#FB3748" stroke-width="1.25" stroke-linecap="round" stroke-linejoin="round"/>
<path d="M4.57 3.08105C3.01733 4.16572 2 5.96239 2 7.99972C2 10.0371 3.01733 11.8337 4.57 12.9184" stroke="#FB3748" stroke-width="1.25" stroke-linecap="round" stroke-linejoin="round"/>
</svg>
