<svg viewBox="0 0 18 18" fill="none" xmlns="http://www.w3.org/2000/svg">
<path d="M16.0999 0.666504H1.89746C1.21712 0.666504 0.666992 1.20361 0.666992 1.86768V16.1287C0.666992 16.7928 1.21712 17.3332 1.89746 17.3332H16.0999C16.7803 17.3332 17.3337 16.7928 17.3337 16.132V1.86768C17.3337 1.20361 16.7803 0.666504 16.0999 0.666504ZM5.61165 14.869H3.1377V6.91325H5.61165V14.869ZM4.37467 5.82926C3.5804 5.82926 2.93913 5.18799 2.93913 4.39697C2.93913 3.60596 3.5804 2.96468 4.37467 2.96468C5.16569 2.96468 5.80697 3.60596 5.80697 4.39697C5.80697 5.18473 5.16569 5.82926 4.37467 5.82926ZM14.8695 14.869H12.3988V11.0018C12.3988 10.0806 12.3825 8.89242 11.113 8.89242C9.82715 8.89242 9.63183 9.89827 9.63183 10.9367V14.869H7.16439V6.91325H9.53418V8.00049H9.56673C9.89551 7.37549 10.7028 6.71468 11.904 6.71468C14.4072 6.71468 14.8695 8.36182 14.8695 10.5037V14.869Z" fill="#63686E"/>
</svg>
