<svg width="24" height="24" viewBox="0 0 24 24" fill="none" xmlns="http://www.w3.org/2000/svg">
<path fill-rule="evenodd" clip-rule="evenodd" d="M18.965 16.6105L17.792 15.4375C17.206 14.8515 16.256 14.8515 15.671 15.4375L14.749 16.3595C14.543 16.5655 14.231 16.6345 13.965 16.5175C12.629 15.9325 11.309 15.0455 10.132 13.8685C8.96002 12.6965 8.07602 11.3825 7.49002 10.0515C7.36802 9.77646 7.43902 9.45346 7.65202 9.24046L8.47802 8.41446C9.14902 7.74346 9.14902 6.79446 8.56302 6.20846L7.39002 5.03546C6.60902 4.25446 5.34302 4.25446 4.56202 5.03546L3.91002 5.68646C3.16902 6.42746 2.86002 7.49646 3.06002 8.55646C3.55402 11.1695 5.07202 14.0305 7.52102 16.4795C9.97002 18.9285 12.831 20.4465 15.444 20.9405C16.504 21.1405 17.573 20.8315 18.314 20.0905L18.965 19.4395C19.746 18.6585 19.746 17.3925 18.965 16.6105V16.6105Z" stroke="#63686E" stroke-width="1.5" stroke-linecap="round" stroke-linejoin="round"/>
<path d="M13 6.99158C14.031 6.97758 15.067 7.35958 15.854 8.14658C16.641 8.93358 17.023 9.96958 17.009 11.0006" stroke="#63686E" stroke-width="1.5" stroke-linecap="round" stroke-linejoin="round"/>
<path d="M13 2.96436C15.056 2.96436 17.113 3.74936 18.682 5.31836C20.251 6.88736 21.036 8.94436 21.036 11.0004" stroke="#63686E" stroke-width="1.5" stroke-linecap="round" stroke-linejoin="round"/>
</svg>
