<svg width="25" height="24" viewBox="0 0 25 24" fill="none" xmlns="http://www.w3.org/2000/svg">
<path fill-rule="evenodd" clip-rule="evenodd" d="M16.005 2.99999H9.92905C9.44305 2.99999 8.97605 3.19299 8.63305 3.53699L4.33705 7.83299C3.99305 8.17699 3.80005 8.64299 3.80005 9.12899V15.204C3.80005 15.69 3.99305 16.157 4.33705 16.5L8.63305 20.796C8.97705 21.14 9.44305 21.333 9.92905 21.333H16.004C16.49 21.333 16.957 21.14 17.3 20.796L21.596 16.5C21.94 16.156 22.133 15.69 22.133 15.204V9.12899C22.133 8.64299 21.94 8.17599 21.596 7.83299L17.301 3.53699C16.957 3.19299 16.491 2.99999 16.005 2.99999Z" stroke="white" stroke-width="1.5" stroke-linecap="round" stroke-linejoin="round"/>
<path fill-rule="evenodd" clip-rule="evenodd" d="M14.7889 6H10.8118C10.4937 6 10.188 6.12633 9.9635 6.3515L7.15153 9.16348C6.92636 9.38864 6.80003 9.69367 6.80003 10.0118V13.9882C6.80003 14.3063 6.92636 14.612 7.15153 14.8365L9.9635 17.6485C10.1887 17.8737 10.4937 18 10.8118 18H14.7882C15.1064 18 15.412 17.8737 15.6366 17.6485L18.4485 14.8365C18.6737 14.6114 18.8 14.3063 18.8 13.9882V10.0118C18.8 9.69367 18.6737 9.38799 18.4485 9.16348L15.6372 6.3515C15.412 6.12633 15.107 6 14.7889 6Z" stroke="white" stroke-width="1.5" stroke-linecap="round" stroke-linejoin="round"/>
</svg>
