<svg width="20" height="20" viewBox="0 0 20 20" fill="none" xmlns="http://www.w3.org/2000/svg">
<path d="M17.0996 1.66667H2.89714C2.2168 1.66667 1.66667 2.20378 1.66667 2.86784V17.1289C1.66667 17.793 2.2168 18.3333 2.89714 18.3333H17.0996C17.78 18.3333 18.3333 17.793 18.3333 17.1322V2.86784C18.3333 2.20378 17.78 1.66667 17.0996 1.66667ZM6.61133 15.8691H4.13737V7.91342H6.61133V15.8691ZM5.37435 6.82943C4.58008 6.82943 3.93881 6.18816 3.93881 5.39714C3.93881 4.60612 4.58008 3.96485 5.37435 3.96485C6.16537 3.96485 6.80665 4.60612 6.80665 5.39714C6.80665 6.1849 6.16537 6.82943 5.37435 6.82943ZM15.8691 15.8691H13.3984V12.002C13.3984 11.0807 13.3822 9.89258 12.1126 9.89258C10.8268 9.89258 10.6315 10.8984 10.6315 11.9369V15.8691H8.16407V7.91342H10.5339V9.00066H10.5664C10.8952 8.37566 11.7025 7.71485 12.9037 7.71485C15.4069 7.71485 15.8691 9.36198 15.8691 11.5039V15.8691Z" fill="#63686E"/>
</svg>
