<svg viewBox="0 0 24 24" fill="none" xmlns="http://www.w3.org/2000/svg">
<path d="M23.0042 19V17.904C23.0042 16.523 21.8852 15.404 20.5042 15.404H19.7032M1.00391 19V17.904C1.00391 16.523 2.12291 15.404 3.50391 15.404H4.30491M17.3437 19V17.399C17.3437 15.466 15.7767 13.899 13.8437 13.899H10.1647C8.23167 13.899 6.66467 15.466 6.66467 17.399V19M20.7972 9.52352C21.5872 10.3136 21.5872 11.5944 20.7972 12.3845C20.0071 13.1745 18.7262 13.1745 17.9362 12.3845C17.1462 11.5944 17.1462 10.3136 17.9362 9.52352C18.7262 8.73349 20.0071 8.73349 20.7972 9.52352ZM14.2073 5.91236C15.4238 7.12884 15.4238 9.10115 14.2073 10.3176C12.9909 11.5341 11.0185 11.5341 9.80206 10.3176C8.58558 9.10116 8.58558 7.12885 9.80206 5.91236C11.0185 4.69588 12.9908 4.69588 14.2073 5.91236ZM6.07214 9.5235C6.86217 10.3135 6.86217 11.5944 6.07214 12.3845C5.28211 13.1745 4.00122 13.1745 3.21119 12.3845C2.42116 11.5944 2.42116 10.3135 3.21119 9.5235C4.00122 8.73347 5.28211 8.73347 6.07214 9.5235Z" stroke="#0F9960" stroke-width="1.5" stroke-linecap="round" stroke-linejoin="round"/>
</svg>