<svg viewBox="0 0 22 22" fill="none" xmlns="http://www.w3.org/2000/svg">
<path d="M18.7199 5.48L18.7299 5.46M13.8699 1.93L13.8599 1.94M20.5 10.92V10.91M1.5 10.91V10.92M3.26997 5.46L3.27997 5.48M8.14002 1.94L8.13002 1.93M14.8899 9.75L16.8899 9.1M20.443 11.844L16.892 9.096L18.15 4.786M10.9999 6.93V4.82M14.711 2.288L11 4.815L7.28897 2.288M13.4 14.31L14.64 16.02M13.125 20.249L14.642 16.023L19.129 15.887M7.11001 9.75L5.11001 9.1M1.55698 11.844L5.10798 9.096L3.84998 4.786M8.60001 14.31L7.36001 16.02M8.87498 20.249L7.35798 16.023L2.87098 15.887M17.7175 4.28248C21.4275 7.99246 21.4275 14.0075 17.7175 17.7175C14.0075 21.4275 7.99244 21.4275 4.28249 17.7175C0.572512 14.0075 0.572512 7.99243 4.28249 4.28248C7.99247 0.572505 14.0075 0.572505 17.7175 4.28248ZM11 6.926L14.885 9.749L13.401 14.315H8.59901L7.11501 9.749L11 6.926Z" stroke="#63686E" stroke-width="1.8" stroke-linecap="round" stroke-linejoin="round"/>
</svg>
