<svg viewBox="0 0 18 18" fill="none" xmlns="http://www.w3.org/2000/svg">
<path d="M9.00033 0.666504C4.39799 0.666504 0.666992 4.3975 0.666992 8.99984C0.666992 12.9078 3.35766 16.1872 6.98733 17.0878V11.5465H5.26899V8.99984H6.98733V7.9025C6.98733 5.06617 8.27099 3.7515 11.0557 3.7515C11.5837 3.7515 12.4947 3.85517 12.8673 3.9585V6.26684C12.6707 6.24617 12.329 6.23584 11.9047 6.23584C10.5383 6.23584 10.0103 6.7535 10.0103 8.09917V8.99984H12.7323L12.2647 11.5465H10.0103V17.2722C14.1367 16.7738 17.334 13.2605 17.334 8.99984C17.3337 4.3975 13.6027 0.666504 9.00033 0.666504Z" fill="#63686E"/>
</svg>
