<svg viewBox="0 0 22 20" fill="none" xmlns="http://www.w3.org/2000/svg">
<path d="M0.996094 7H3.99609C4.54809 7 4.99609 7.448 4.99609 8V12C4.99609 12.552 4.54809 13 3.99609 13H0.996094M20.9961 13H17.9961C17.4441 13 16.9961 12.552 16.9961 12V8C16.9961 7.448 17.4441 7 17.9961 7H20.9961M10.9961 1V7M10.9961 13V19M19.9351 19H2.05709C1.47109 19 0.996094 18.525 0.996094 17.939V2.061C0.996094 1.475 1.47109 1 2.05709 1H19.9361C20.5211 1 20.9961 1.475 20.9961 2.061V17.94C20.9961 18.525 20.5211 19 19.9351 19ZM13.1174 7.87868C14.289 9.05025 14.289 10.9498 13.1174 12.1213C11.9458 13.2929 10.0463 13.2929 8.87475 12.1213C7.70318 10.9498 7.70318 9.05025 8.87475 7.87868C10.0463 6.70711 11.9458 6.70711 13.1174 7.87868Z" stroke="#0F9960" stroke-width="1.5" stroke-linecap="round" stroke-linejoin="round"/>
</svg>