<svg viewBox="0 0 18 18" fill="none" xmlns="http://www.w3.org/2000/svg">
<path fill-rule="evenodd" clip-rule="evenodd" d="M9 18C4.029 18 0 13.971 0 9C0 4.029 4.029 0 9 0C13.971 0 18 4.029 18 9C18 13.971 13.971 18 9 18ZM6.01044 4.84204C5.68766 4.51926 5.16433 4.51926 4.84155 4.84204C4.51877 5.16482 4.51877 5.68815 4.84155 6.01093L7.93057 9.09996L4.84155 12.189C4.51877 12.5118 4.51877 13.0351 4.84155 13.3579C5.16433 13.6807 5.68766 13.6807 6.01044 13.3579L9.09946 10.2688L12.1885 13.3579C12.5113 13.6807 13.0346 13.6807 13.3574 13.3579C13.6802 13.0351 13.6802 12.5118 13.3574 12.189L10.2684 9.09996L13.3574 6.01093C13.6802 5.68815 13.6802 5.16482 13.3574 4.84204C13.0346 4.51926 12.5113 4.51926 12.1885 4.84204L9.09946 7.93107L6.01044 4.84204Z" fill="#FB3748"/>
</svg>
