<svg viewBox="0 0 24 24" fill="none" xmlns="http://www.w3.org/2000/svg">
<path d="M8.447 16.2668C8.447 16.7638 8.84995 17.1668 9.347 17.1668C9.84406 17.1668 10.247 16.7638 10.247 16.2668H8.447ZM4.602 5.81479L3.73089 5.58861L3.73077 5.58905L4.602 5.81479ZM1.24077 15.199C1.1161 15.6802 1.4051 16.1713 1.88626 16.296C2.36743 16.4207 2.85856 16.1317 2.98323 15.6505L1.24077 15.199ZM13.753 16.2668C13.753 16.7638 14.1559 17.1668 14.653 17.1668C15.1501 17.1668 15.553 16.7638 15.553 16.2668H13.753ZM19.398 5.81479L20.2692 5.58905L20.2691 5.58861L19.398 5.81479ZM21.0168 15.6505C21.1414 16.1317 21.6326 16.4207 22.1137 16.296C22.5949 16.1713 22.8839 15.6802 22.7592 15.199L21.0168 15.6505ZM13.753 9.99979C13.753 10.4968 14.1559 10.8998 14.653 10.8998C15.1501 10.8998 15.553 10.4968 15.553 9.99979H13.753ZM8.447 9.99979C8.447 10.4968 8.84995 10.8998 9.347 10.8998C9.84406 10.8998 10.247 10.4968 10.247 9.99979H8.447ZM8.447 15.9998C8.447 16.4968 8.84995 16.8998 9.347 16.8998C9.84406 16.8998 10.247 16.4968 10.247 15.9998H8.447ZM13.753 15.9998C13.753 16.4968 14.1559 16.8998 14.653 16.8998C15.1501 16.8998 15.553 16.4968 15.553 15.9998H13.753ZM10.247 16.2668V6.41979H8.447V16.2668H10.247ZM10.247 6.41979C10.247 4.59073 8.76506 3.10879 6.936 3.10879V4.90879C7.77095 4.90879 8.447 5.58485 8.447 6.41979H10.247ZM6.936 3.10879C5.42653 3.10879 4.10978 4.12933 3.73089 5.58861L5.47312 6.04097C5.64623 5.37425 6.24747 4.90879 6.936 4.90879V3.10879ZM3.73077 5.58905L1.24077 15.199L2.98323 15.6505L5.47323 6.04053L3.73077 5.58905ZM7.63552 14.3643C8.71883 15.4476 8.71883 17.204 7.63552 18.2873L8.90831 19.5601C10.6946 17.7738 10.6946 14.8778 8.90831 13.0915L7.63552 14.3643ZM7.63552 18.2873C6.5522 19.3706 4.79581 19.3706 3.71249 18.2873L2.4397 19.5601C4.22596 21.3464 7.12205 21.3464 8.90831 19.5601L7.63552 18.2873ZM3.71249 18.2873C2.62917 17.204 2.62917 15.4476 3.71249 14.3643L2.4397 13.0915C0.653435 14.8778 0.653435 17.7738 2.4397 19.5601L3.71249 18.2873ZM3.71249 14.3643C4.79581 13.281 6.5522 13.281 7.63552 14.3643L8.90831 13.0915C7.12205 11.3052 4.22596 11.3052 2.4397 13.0915L3.71249 14.3643ZM15.553 16.2668V6.41979H13.753V16.2668H15.553ZM15.553 6.41979C15.553 5.58485 16.2291 4.90879 17.064 4.90879V3.10879C15.2349 3.10879 13.753 4.59073 13.753 6.41979H15.553ZM17.064 4.90879C17.7525 4.90879 18.3538 5.37425 18.5269 6.04097L20.2691 5.58861C19.8902 4.12933 18.5735 3.10879 17.064 3.10879V4.90879ZM18.5268 6.04053L21.0168 15.6505L22.7592 15.199L20.2692 5.58905L18.5268 6.04053ZM15.553 9.99979C15.553 8.03628 13.9636 6.44179 12 6.44179V8.24179C12.9664 8.24179 13.753 9.0273 13.753 9.99979H15.553ZM12 6.44179C10.0364 6.44179 8.447 8.03628 8.447 9.99979H10.247C10.247 9.0273 11.0336 8.24179 12 8.24179V6.44179ZM10.247 15.9998C10.247 15.0273 11.0336 14.2418 12 14.2418V12.4418C10.0364 12.4418 8.447 14.0363 8.447 15.9998H10.247ZM12 14.2418C12.9664 14.2418 13.753 15.0273 13.753 15.9998H15.553C15.553 14.0363 13.9636 12.4418 12 12.4418V14.2418ZM20.2875 14.3643C21.3708 15.4476 21.3708 17.204 20.2875 18.2873L21.5603 19.5601C23.3466 17.7738 23.3466 14.8778 21.5603 13.0915L20.2875 14.3643ZM20.2875 18.2873C19.2042 19.3706 17.4478 19.3706 16.3645 18.2873L15.0917 19.5601C16.8779 21.3464 19.774 21.3464 21.5603 19.5601L20.2875 18.2873ZM16.3645 18.2873C15.2812 17.204 15.2812 15.4476 16.3645 14.3643L15.0917 13.0915C13.3054 14.8778 13.3054 17.7738 15.0917 19.5601L16.3645 18.2873ZM16.3645 14.3643C17.4478 13.281 19.2042 13.281 20.2875 14.3643L21.5603 13.0915C19.774 11.3052 16.8779 11.3052 15.0917 13.0915L16.3645 14.3643Z" fill="#0F9960"/>
</svg>
