<svg width="21" height="20" viewBox="0 0 21 20" fill="none" xmlns="http://www.w3.org/2000/svg">
<path d="M10.3889 3.16732C12.6154 3.16732 12.8791 3.17709 13.7548 3.21615C14.5686 3.25196 15.008 3.38868 15.301 3.50261C15.6884 3.65235 15.9683 3.83464 16.258 4.12435C16.551 4.41732 16.73 4.69402 16.8798 5.08139C16.9937 5.37435 17.1304 5.81706 17.1662 6.62761C17.2053 7.50652 17.2151 7.77019 17.2151 9.9935C17.2151 12.2201 17.2053 12.4837 17.1662 13.3594C17.1304 14.1732 16.9937 14.6126 16.8798 14.9056C16.73 15.293 16.5477 15.5729 16.258 15.8626C15.9651 16.1556 15.6884 16.3346 15.301 16.4844C15.008 16.5983 14.5653 16.735 13.7548 16.7708C12.8759 16.8099 12.6122 16.8197 10.3889 16.8197C8.16231 16.8197 7.89864 16.8099 7.02299 16.7708C6.20919 16.735 5.76974 16.5983 5.47677 16.4844C5.0894 16.3346 4.80945 16.1524 4.51974 15.8626C4.22677 15.5697 4.04773 15.293 3.89799 14.9056C3.78406 14.6126 3.64734 14.1699 3.61153 13.3594C3.57247 12.4805 3.5627 12.2168 3.5627 9.9935C3.5627 7.76693 3.57247 7.50326 3.61153 6.62761C3.64734 5.81381 3.78406 5.37435 3.89799 5.08139C4.04773 4.69402 4.23002 4.41407 4.51974 4.12435C4.8127 3.83139 5.0894 3.65235 5.47677 3.50261C5.76974 3.38868 6.21244 3.25196 7.02299 3.21615C7.89864 3.17709 8.16231 3.16732 10.3889 3.16732ZM10.3889 1.66667C8.12651 1.66667 7.8433 1.67644 6.95463 1.7155C6.06921 1.75456 5.46049 1.89779 4.93315 2.10287C4.38302 2.31771 3.91752 2.60092 3.45528 3.06641C2.98979 3.52865 2.70658 3.99415 2.49174 4.54102C2.28666 5.07162 2.14343 5.67709 2.10437 6.56251C2.06531 7.45443 2.05554 7.73764 2.05554 10C2.05554 12.2624 2.06531 12.5456 2.10437 13.4343C2.14343 14.3197 2.28666 14.9284 2.49174 15.4557C2.70658 16.0059 2.98979 16.4714 3.45528 16.9336C3.91752 17.3958 4.38302 17.6823 4.92989 17.8939C5.46049 18.099 6.06596 18.2422 6.95138 18.2813C7.84005 18.3203 8.12325 18.3301 10.3856 18.3301C12.648 18.3301 12.9312 18.3203 13.8199 18.2813C14.7053 18.2422 15.314 18.099 15.8414 17.8939C16.3882 17.6823 16.8537 17.3958 17.316 16.9336C17.7782 16.4714 18.0647 16.0059 18.2762 15.459C18.4813 14.9284 18.6246 14.3229 18.6636 13.4375C18.7027 12.5488 18.7124 12.2656 18.7124 10.0033C18.7124 7.74089 18.7027 7.45769 18.6636 6.56902C18.6246 5.6836 18.4813 5.07488 18.2762 4.54753C18.0712 3.99415 17.788 3.52865 17.3225 3.06641C16.8602 2.60417 16.3947 2.31771 15.8479 2.10612C15.3173 1.90105 14.7118 1.75782 13.8264 1.71876C12.9345 1.67644 12.6512 1.66667 10.3889 1.66667Z" fill="#63686E"/>
<path d="M10.3889 5.71941C8.02559 5.71941 6.10828 7.63672 6.10828 10C6.10828 12.3633 8.02559 14.2806 10.3889 14.2806C12.7522 14.2806 14.6695 12.3633 14.6695 10C14.6695 7.63672 12.7522 5.71941 10.3889 5.71941ZM10.3889 12.7767C8.85567 12.7767 7.61218 11.5332 7.61218 10C7.61218 8.4668 8.85567 7.22331 10.3889 7.22331C11.9221 7.22331 13.1656 8.4668 13.1656 10C13.1656 11.5332 11.9221 12.7767 10.3889 12.7767Z" fill="#63686E"/>
<path d="M15.8381 5.55011C15.8381 6.10349 15.3889 6.54946 14.8387 6.54946C14.2854 6.54946 13.8394 6.10024 13.8394 5.55011C13.8394 4.99672 14.2886 4.55076 14.8387 4.55076C15.3889 4.55076 15.8381 4.99997 15.8381 5.55011Z" fill="#63686E"/>
</svg>
