<svg  viewBox="0 0 18 18" fill="none" xmlns="http://www.w3.org/2000/svg">
<path fill-rule="evenodd" clip-rule="evenodd" d="M0 9C0 13.971 4.029 18 9 18C13.971 18 18 13.971 18 9C18 4.029 13.971 0 9 0C4.029 0 0 4.029 0 9ZM8.99896 4.10001C8.36625 4.10001 7.8471 4.61338 7.84996 5.25327C7.85172 5.88683 8.36599 6.40001 8.99996 6.40001C9.63501 6.40001 10.15 5.88506 10.15 5.25001C10.15 4.61261 9.63267 4.10001 8.99896 4.10001ZM9.89996 9.00001C9.89996 8.50295 9.49701 8.10001 8.99996 8.10001C8.5029 8.10001 8.09996 8.50295 8.09996 9.00001V14C8.09996 14.4971 8.5029 14.9 8.99996 14.9C9.49701 14.9 9.89996 14.4971 9.89996 14V9.00001Z" fill="#335CFF"/>
</svg>
