<svg viewBox="0 0 24 24" fill="none" xmlns="http://www.w3.org/2000/svg">
<path d="M19.7199 6.48L19.7299 6.46M14.8699 2.93L14.8599 2.94M21.5 11.92V11.91M2.5 11.91V11.92M4.26997 6.46L4.27997 6.48M9.14002 2.94L9.13002 2.93M15.8899 10.75L17.8899 10.1M21.443 12.844L17.892 10.096L19.15 5.786M11.9999 7.93V5.82M15.711 3.288L12 5.815L8.28897 3.288M14.4 15.31L15.64 17.02M14.125 21.249L15.642 17.023L20.129 16.887M8.11001 10.75L6.11001 10.1M2.55698 12.844L6.10798 10.096L4.84998 5.786M9.60001 15.31L8.36001 17.02M9.87498 21.249L8.35798 17.023L3.87098 16.887M18.7175 5.28248C22.4275 8.99246 22.4275 15.0075 18.7175 18.7175C15.0075 22.4275 8.99244 22.4275 5.28249 18.7175C1.57251 15.0075 1.57251 8.99243 5.28249 5.28248C8.99247 1.5725 15.0075 1.5725 18.7175 5.28248ZM12 7.926L15.885 10.749L14.401 15.315H9.59901L8.11501 10.749L12 7.926Z" stroke="#63686E" stroke-width="1.5" stroke-linecap="round" stroke-linejoin="round"/>
<path d="M21.6004 2.40039L2.40039 21.6004" stroke="white" stroke-width="3" stroke-linecap="round" stroke-linejoin="round"/>
<path d="M20.3996 3.59961L3.59961 20.3996" stroke="#63686E" stroke-width="1.5" stroke-linecap="round" stroke-linejoin="round"/>
</svg>
