<svg viewBox="0 0 20 20" fill="none" xmlns="http://www.w3.org/2000/svg">
<path fill-rule="evenodd" clip-rule="evenodd" d="M6.82735 16.6573H4.34563C3.79169 16.6573 3.34274 16.2083 3.34274 15.6544V13.1726C3.34274 12.9067 3.23675 12.6517 3.04877 12.4637L1.29397 10.7089C0.902011 10.317 0.902011 9.68203 1.29397 9.29108L3.06677 7.51828C3.24375 7.34129 3.34274 7.10232 3.34274 6.85235V4.34563C3.34274 3.79169 3.79169 3.34274 4.34563 3.34274H6.82735C7.09332 3.34274 7.34829 3.23675 7.53627 3.04877L9.29108 1.29397C9.68303 0.902011 10.318 0.902011 10.7089 1.29397L12.4637 3.04877C12.6517 3.23675 12.9067 3.34274 13.1726 3.34274H15.6544C16.2083 3.34274 16.6573 3.79169 16.6573 4.34563V6.82735C16.6573 7.09332 16.7632 7.34829 16.9512 7.53627L18.706 9.29108C19.098 9.68303 19.098 10.318 18.706 10.7089L16.9512 12.4637C16.7632 12.6517 16.6573 12.9067 16.6573 13.1726V15.6544C16.6573 16.2083 16.2083 16.6573 15.6544 16.6573H13.1726C12.9067 16.6573 12.6517 16.7632 12.4637 16.9512L10.7089 18.706C10.317 19.098 9.68203 19.098 9.29108 18.706L7.53627 16.9512C7.34829 16.7622 7.09332 16.6573 6.82735 16.6573Z" stroke="#0D3330" stroke-width="1.5" stroke-linecap="round" stroke-linejoin="round"/>
<path fill-rule="evenodd" clip-rule="evenodd" d="M9.99998 6.50039C8.06719 6.50039 6.50036 8.06721 6.50036 10C6.50036 11.9328 8.06719 13.4996 9.99998 13.4996C11.9328 13.4996 13.4996 11.9328 13.4996 10C13.4996 8.06721 11.9328 6.50039 9.99998 6.50039Z" stroke="#0D3330" stroke-width="1.5" stroke-linecap="round" stroke-linejoin="round"/>
</svg>
