<svg xmlns="http://www.w3.org/2000/svg" width="32" height="32" viewBox="0 0 32 32" fill="none"><path d="M4.00146 12C4.00146 13.4733 6.98546 14.6667 10.6681 14.6667" stroke="#F5F8FC" stroke-width="1.5" stroke-linecap="round" stroke-linejoin="round"></path><path d="M10.6668 19.9999C6.98547 19.9999 4.00146 18.8066 4.00146 17.3333" stroke="#F5F8FC" stroke-width="1.5" stroke-linecap="round" stroke-linejoin="round"></path><path d="M17.332 6.66675H17.3333V10.6667" stroke="#F5F8FC" stroke-width="1.5" stroke-linecap="round" stroke-linejoin="round"></path><path d="M14.668 21.3333C14.668 22.8066 17.652 23.9999 21.3346 23.9999C25.0173 23.9999 28.0013 22.8066 28.0013 21.3333" stroke="#F5F8FC" stroke-width="1.5" stroke-linecap="round" stroke-linejoin="round"></path><path d="M14.668 16C14.668 17.4733 17.652 18.6667 21.3346 18.6667C25.0173 18.6667 28.0013 17.4733 28.0013 16" stroke="#F5F8FC" stroke-width="1.5" stroke-linecap="round" stroke-linejoin="round"></path><path d="M21.3334 13.3333C17.6534 13.3333 14.6668 14.5266 14.6694 15.9999" stroke="#F5F8FC" stroke-width="1.5" stroke-linecap="round" stroke-linejoin="round"></path><path d="M14.668 16V26.6667C14.668 28.14 17.652 29.3333 21.3346 29.3333" stroke="#F5F8FC" stroke-width="1.5" stroke-linecap="round" stroke-linejoin="round"></path><path d="M21.3335 13.3333C25.0135 13.3333 28.0002 14.5266 27.9975 15.9999" stroke="#F5F8FC" stroke-width="1.5" stroke-linecap="round" stroke-linejoin="round"></path><path d="M28.0002 16V26.6667C28.0002 28.14 25.0162 29.3333 21.3335 29.3333" stroke="#F5F8FC" stroke-width="1.5" stroke-linecap="round" stroke-linejoin="round"></path><path d="M10.6667 25.3334C6.98533 25.3334 4 24.1401 4 22.6667" stroke="#F5F8FC" stroke-width="1.5" stroke-linecap="round" stroke-linejoin="round"></path><path fill-rule="evenodd" clip-rule="evenodd" d="M10.6667 9.33333C14.3486 9.33333 17.3333 8.13943 17.3333 6.66667C17.3333 5.19391 14.3486 4 10.6667 4C6.98477 4 4 5.19391 4 6.66667C4 8.13943 6.98477 9.33333 10.6667 9.33333Z" stroke="#F5F8FC" stroke-width="1.5" stroke-linecap="round" stroke-linejoin="round"></path><path d="M4.00016 6.66675V22.6667" stroke="#F5F8FC" stroke-width="1.5" stroke-linecap="round" stroke-linejoin="round"></path></svg> 