<svg viewBox="0 0 20 20" fill="none" xmlns="http://www.w3.org/2000/svg">
<path fill-rule="evenodd" clip-rule="evenodd" d="M5.75 7.75H3C1.895 7.75 1 6.855 1 5.75V3C1 1.895 1.895 1 3 1H5.75C6.855 1 7.75 1.895 7.75 3V5.75C7.75 6.855 6.855 7.75 5.75 7.75Z" stroke="#63686E" stroke-width="1.8" stroke-linecap="round" stroke-linejoin="round"/>
<path fill-rule="evenodd" clip-rule="evenodd" d="M17 7.75H14.25C13.145 7.75 12.25 6.855 12.25 5.75V3C12.25 1.895 13.145 1 14.25 1H17C18.105 1 19 1.895 19 3V5.75C19 6.855 18.105 7.75 17 7.75Z" stroke="#63686E" stroke-width="1.8" stroke-linecap="round" stroke-linejoin="round"/>
<path fill-rule="evenodd" clip-rule="evenodd" d="M5.75 19H3C1.895 19 1 18.105 1 17V14.25C1 13.145 1.895 12.25 3 12.25H5.75C6.855 12.25 7.75 13.145 7.75 14.25V17C7.75 18.105 6.855 19 5.75 19Z" stroke="#63686E" stroke-width="1.8" stroke-linecap="round" stroke-linejoin="round"/>
<path fill-rule="evenodd" clip-rule="evenodd" d="M17 19H14.25C13.145 19 12.25 18.105 12.25 17V14.25C12.25 13.145 13.145 12.25 14.25 12.25H17C18.105 12.25 19 13.145 19 14.25V17C19 18.105 18.105 19 17 19Z" stroke="#63686E" stroke-width="1.8" stroke-linecap="round" stroke-linejoin="round"/>
</svg>
