<svg width="25" height="24" viewBox="0 0 25 24" fill="none" xmlns="http://www.w3.org/2000/svg">
<path d="M9.28869 17.7273H19.1553M9.28869 17.7273V21H19.1553V17.7273M9.28869 17.7273C5.99984 15.5455 4.35541 10.0909 4.90355 8.45455C5.34207 7.14545 7.27884 7.54545 8.19241 7.90909M19.1553 17.7273C19.7034 16.8182 20.7997 13.9091 20.7997 9.54545C20.7997 4.09091 18.6071 3 14.222 3C9.83683 3 8.19241 4.09091 8.19241 7.90909M8.19241 7.90909C8.55784 8.27272 9.6181 8.99997 10.9336 8.99997C12.2492 8.99997 14.7706 8.99997 15.8669 8.99997M8.19241 7.90909C8.19241 11.7273 9.83736 12.2727 10.9336 12.2727" stroke="#63686E" stroke-width="1.8" stroke-linecap="round" stroke-linejoin="round"/>
</svg>
