<svg viewBox="0 0 16 16" fill="none" xmlns="http://www.w3.org/2000/svg">
<path fill-rule="evenodd" clip-rule="evenodd" d="M0.5 8C0.5 12.1425 3.8575 15.5 8 15.5C12.1425 15.5 15.5 12.1425 15.5 8C15.5 3.8575 12.1425 0.5 8 0.5C3.8575 0.5 0.5 3.8575 0.5 8ZM11.9229 6.92251C12.2483 6.59707 12.2483 6.06943 11.9229 5.744C11.5975 5.41856 11.0698 5.41856 10.7444 5.744L7.16698 9.32141L5.25624 7.41066C4.9308 7.08523 4.40316 7.08523 4.07773 7.41066C3.75229 7.7361 3.75229 8.26374 4.07773 8.58918L6.57773 11.0892C6.73401 11.2455 6.94597 11.3333 7.16698 11.3333C7.388 11.3333 7.59996 11.2455 7.75624 11.0892L11.9229 6.92251Z" fill="white"/>
</svg>
