<svg  viewBox="0 0 18 18" fill="none" xmlns="http://www.w3.org/2000/svg">
<path d="M8.99984 0.666992C4.3975 0.666992 0.666504 4.39799 0.666504 9.00033C0.666504 12.9083 3.35717 16.1877 6.98684 17.0883V11.547H5.2685V9.00033H6.98684V7.90299C6.98684 5.06666 8.2705 3.75199 11.0552 3.75199C11.5832 3.75199 12.4942 3.85566 12.8668 3.95899V6.26732C12.6702 6.24666 12.3285 6.23633 11.9042 6.23633C10.5378 6.23633 10.0098 6.75399 10.0098 8.09966V9.00033H12.7318L12.2642 11.547H10.0098V17.2727C14.1362 16.7743 17.3335 13.261 17.3335 9.00033C17.3332 4.39799 13.6022 0.666992 8.99984 0.666992Z" fill="#375998"/>
</svg>
