<svg width="25" height="24" viewBox="0 0 25 24" fill="none" xmlns="http://www.w3.org/2000/svg">
<g clip-path="url(#clip0_125_1316)">
<path d="M2.45472 12.3534C2.77608 11.1949 3.09746 10.0364 3.41862 8.87786H4.38504C4.17795 9.62375 3.97104 10.3701 3.76418 11.1162C3.51328 12.0213 3.26246 12.926 3.01148 13.8294C2.94001 14.0652 2.90557 14.4481 3.14709 14.8065C3.45122 15.2621 3.94106 15.3496 4.17783 15.3627L4.19087 15.3634L4.20393 15.3638C4.30511 15.3664 4.42921 15.3661 4.53186 15.3658C4.5834 15.3656 4.62953 15.3655 4.66464 15.3658L4.66464 15.3659L4.67643 15.3658C4.68508 15.3657 4.69629 15.3659 4.70979 15.366C4.83625 15.3675 5.16411 15.3714 5.47316 15.2532L5.47317 15.2532L5.47957 15.2507C5.95154 15.066 6.14907 14.6538 6.21829 14.3998C6.46346 13.5181 6.70789 12.6371 6.95224 11.7565C7.2185 10.7968 7.48467 9.83754 7.7516 8.87786H8.71624C8.45833 9.8062 8.20066 10.7347 7.94303 11.6631C7.70528 12.5199 7.46757 13.3765 7.22973 14.2327C7.20244 14.3295 7.17778 14.4191 7.15398 14.5056C7.11677 14.6408 7.08165 14.7684 7.04188 14.9039C6.98565 15.0818 6.91722 15.173 6.8708 15.2115L6.87076 15.2114L6.86208 15.2188C6.84492 15.2334 6.7873 15.2703 6.64062 15.306L6.64061 15.306L6.63573 15.3072C6.43332 15.3577 6.21279 15.3752 5.90483 15.3957H2.29541C2.03119 15.3763 1.85368 15.3174 1.74427 15.2412L1.74431 15.2412L1.73547 15.2352C1.71242 15.2195 1.69541 15.2026 1.68483 15.1887C1.68382 15.1874 1.6829 15.1861 1.68207 15.1849L1.68239 15.1557L1.68256 15.1384C1.68258 15.1384 1.6826 15.1383 1.68262 15.1382C1.68576 15.1254 1.69016 15.1092 1.69821 15.0807C1.69921 15.0772 1.70031 15.0733 1.70151 15.0691C1.70797 15.0463 1.71697 15.0146 1.72542 14.9828C1.96844 14.1064 2.21157 13.2299 2.45472 12.3534Z" fill="#63686E" stroke="#63686E" stroke-width="1.8"/>
<path d="M11.2485 7.97785H17.3719C17.2019 8.58663 17.0339 9.19613 16.8645 9.8052C14.8232 9.80563 12.782 9.80549 10.7407 9.80535C10.9098 9.19613 11.0779 8.58663 11.2485 7.97785Z" fill="#63686E"/>
<path d="M20.1367 7.97785H24.782C24.715 8.25421 24.6312 8.52669 24.5577 8.80147C24.4647 9.13605 24.3718 9.47062 24.279 9.8052C23.274 9.80549 22.2688 9.8052 21.2638 9.80535C21.1167 9.80664 20.9636 9.80535 20.8252 9.86228C20.7125 9.90989 20.6539 10.0279 20.6253 10.1405C20.2586 11.4629 19.8915 12.7854 19.5251 14.108C19.4984 14.1902 19.5212 14.2841 19.5824 14.3449C19.6724 14.4368 19.8067 14.4657 19.9311 14.4657C21.0257 14.4659 22.1204 14.4657 23.2151 14.4659C23.0461 15.0759 22.8767 15.6858 22.7075 16.2957H18.055C17.7065 16.2736 17.3508 16.1966 17.0549 16.0032C16.8608 15.879 16.6974 15.6986 16.6193 15.4796C16.5476 15.2916 16.5536 15.082 16.6078 14.8904C17.1337 12.9954 17.6597 11.1004 18.1859 9.20531C18.2622 8.92652 18.3839 8.6516 18.5896 8.44351C18.7254 8.30426 18.8978 8.20444 19.0818 8.14364C19.4214 8.02919 19.7815 8.00137 20.1367 7.97785Z" fill="#63686E"/>
<path d="M10.3893 11.0668C12.4309 11.0665 14.4725 11.0666 16.5141 11.0668C16.3447 11.6774 16.1752 12.2879 16.0057 12.8984C14.9086 12.8989 13.8116 12.8984 12.7145 12.8987C12.4002 14.031 12.0865 15.1633 11.7722 16.2956L11.7915 16.2957H8.93835C9.42294 14.553 9.90552 12.8098 10.3893 11.0668Z" fill="#63686E"/>
</g>
<defs>
<clipPath id="clip0_125_1316">
<rect width="24" height="24" fill="white" transform="translate(0.800049)"/>
</clipPath>
</defs>
</svg>
