<svg viewBox="0 0 20 20" fill="none" xmlns="http://www.w3.org/2000/svg">
<path d="M7.85773 12.142L12.0244 7.97533M12.0819 11.8753V11.8988M7.91518 7.70866V7.7347M18.3327 12.7751V15.0785C18.3327 15.5385 17.9593 15.9118 17.4993 15.9118H2.49935C2.03935 15.9118 1.66602 15.5385 1.66602 15.0785V12.7751C1.66602 12.6543 1.73435 12.5443 1.84185 12.4901C2.75602 12.0335 3.33268 11.1001 3.33268 10.0785C3.33268 9.05678 2.75518 8.12345 1.84185 7.66678C1.73435 7.61262 1.66602 7.50262 1.66602 7.38178V5.07845C1.66602 4.61845 2.03935 4.24512 2.49935 4.24512H17.4993C17.9593 4.24512 18.3327 4.61845 18.3327 5.07845V7.38178C18.3327 7.50262 18.2643 7.61262 18.1568 7.66678L18.1202 7.68595C17.2268 8.14928 16.666 9.07178 16.666 10.0785C16.666 11.0993 17.2427 12.0335 18.156 12.4901C18.2635 12.5443 18.3327 12.6543 18.3327 12.7751Z" stroke="#63686E" stroke-width="1.5" stroke-linecap="round" stroke-linejoin="round"/>
</svg>
