<svg viewBox="0 0 28 18" fill="none" xmlns="http://www.w3.org/2000/svg">
<path fill-rule="evenodd" clip-rule="evenodd" d="M21.901 8.99982C21.901 4.63649 18.3648 1.10032 14.0015 1.10032C9.63815 1.10032 6.10198 4.63649 6.10198 8.99982C6.10198 13.3632 9.63815 16.8993 14.0015 16.8993C18.3648 16.8993 21.901 13.3632 21.901 8.99982ZM15.0514 5.05066C15.0514 4.47076 14.5813 4.00066 14.0014 4.00066C13.4215 4.00066 12.9514 4.47076 12.9514 5.05066V9.4385C12.9514 10.0184 13.4215 10.4885 14.0014 10.4885C14.5813 10.4885 15.0514 10.0184 15.0514 9.4385V5.05066ZM14.0003 11.5047C13.328 11.5047 12.7716 12.05 12.7765 12.736C12.7799 13.4098 13.3268 13.9547 14.0014 13.9547C14.6782 13.9547 15.2264 13.4064 15.2264 12.7297C15.2264 12.0541 14.6782 11.5047 14.0003 11.5047Z" fill="#FF8447"/>
<path fill-rule="evenodd" clip-rule="evenodd" d="M23.0838 0.877303C23.5471 0.528641 24.2054 0.621636 24.5541 1.08501C28.0764 5.76621 28.0764 12.2323 24.5541 16.9135C24.2054 17.3768 23.5471 17.4698 23.0838 17.1212C22.6204 16.7725 22.5274 16.1142 22.8761 15.6508C25.8358 11.7174 25.8358 6.2811 22.8761 2.34763C22.5274 1.88425 22.6204 1.22596 23.0838 0.877303ZM4.91089 0.87847C5.37426 1.22713 5.46726 1.88542 5.1186 2.3488C2.15891 6.28226 2.15891 11.7185 5.1186 15.652C5.46726 16.1154 5.37426 16.7737 4.91089 17.1223C4.44751 17.471 3.78922 17.378 3.44056 16.9146C-0.0817495 12.2334 -0.0817495 5.76738 3.44056 1.08618C3.78922 0.622803 4.44751 0.529808 4.91089 0.87847Z" fill="#FF8447"/>
</svg>
