<svg xmlns="http://www.w3.org/2000/svg" width="17" height="16" viewBox="0 0 17 16" fill="none"><path d="M13.1963 8.67065L14.027 9.50132L14.8576 8.67065" stroke="#808792" stroke-linecap="square" stroke-linejoin="round"></path><path d="M2.84835 7.32945L2.01768 6.49878L1.18701 7.32945" stroke="#808792" stroke-linecap="square" stroke-linejoin="round"></path><path d="M13.094 12.0651L13.4072 11.6754L12.6278 11.0489L12.3145 11.4386L13.094 12.0651ZM2.66157 6.76642C2.72336 6.49728 2.55527 6.22901 2.28613 6.16722C2.01699 6.10543 1.74871 6.27352 1.68692 6.54266L2.66157 6.76642ZM12.3145 11.4386C11.3043 12.6955 9.75904 13.4999 8.02358 13.4999V14.4999C10.0761 14.4999 11.9029 13.5469 13.094 12.0651L12.3145 11.4386ZM8.02358 13.4999H8.02224V14.4999H8.02358V13.4999ZM8.02224 13.4999H8.02091V14.4999H8.02224V13.4999ZM8.02091 13.4999C4.98091 13.4999 2.51758 11.0369 2.51758 7.99854H1.51758C1.51758 11.5895 4.42891 14.4999 8.02091 14.4999V13.4999ZM2.51758 7.99854C2.51758 7.57743 2.56974 7.1664 2.66157 6.76642L1.68692 6.54266C1.58009 7.00801 1.51758 7.49432 1.51758 7.99854H2.51758Z" fill="#808792"></path><path d="M2.95297 3.93487L2.63984 4.32467L3.41944 4.95094L3.73258 4.56113L2.95297 3.93487ZM13.3828 9.23345C13.321 9.50259 13.4891 9.77086 13.7582 9.83265C14.0274 9.89445 14.2956 9.72636 14.3574 9.45721L13.3828 9.23345ZM3.73258 4.56113C4.74209 3.30445 6.28789 2.5 8.02344 2.5V1.5C5.97099 1.5 4.14346 2.45289 2.95297 3.93487L3.73258 4.56113ZM8.02344 2.5C11.0634 2.5 13.5268 4.96295 13.5268 8.00133H14.5268C14.5268 4.41038 11.6154 1.5 8.02344 1.5V2.5ZM13.5268 8.00133C13.5268 8.42244 13.4746 8.83347 13.3828 9.23345L14.3574 9.45721C14.4643 8.99186 14.5268 8.50556 14.5268 8.00133H13.5268Z" fill="#808792"></path></svg> 