<svg width="20" height="20" viewBox="0 0 20 20" fill="none" xmlns="http://www.w3.org/2000/svg">
<path fill-rule="evenodd" clip-rule="evenodd" d="M9.66046 7.63989C9.11379 7.63989 8.26213 7.00322 7.37713 7.00322C6.20046 7.00322 5.12379 7.72239 4.51713 8.77739C3.29713 10.8957 4.20296 14.0257 5.39296 15.7474C5.97713 16.5857 6.66546 17.5291 7.57879 17.4991C8.45463 17.4616 8.78379 16.9299 9.84713 16.9299C10.903 16.9299 11.2021 17.4991 12.1305 17.4766C13.0738 17.4616 13.673 16.6232 14.2488 15.7774C14.9155 14.8041 15.1921 13.8607 15.2071 13.8082C15.1846 13.8007 13.373 13.1049 13.3505 11.0082C13.3355 9.25656 14.7805 8.41822 14.848 8.38072C14.0246 7.17572 12.7596 7.04072 12.318 7.01072C11.1646 6.92072 10.1996 7.63989 9.66046 7.63989Z" stroke="#63686E" stroke-width="1.5" stroke-linecap="round" stroke-linejoin="round"/>
<path fill-rule="evenodd" clip-rule="evenodd" d="M11.376 2.46186C12.1002 2.19226 12.5739 2.58976 12.434 3.34971C12.2942 4.10966 11.5939 4.94427 10.8697 5.21387C10.1456 5.48347 9.67189 5.08597 9.8117 4.32602C9.95152 3.56608 10.6519 2.73146 11.376 2.46186Z" stroke="#63686E" stroke-width="1.5" stroke-linecap="round" stroke-linejoin="round"/>
</svg>
