<svg xmlns="http://www.w3.org/2000/svg" width="21" height="21" viewBox="0 0 21 21" fill="none"><path fill-rule="evenodd" clip-rule="evenodd" d="M10.2247 3.79473C10.2247 3.79478 10.2247 3.79469 10.2247 3.79473L5.21578 11.0302C5.2033 11.0482 5.20146 11.0599 5.20116 11.067C5.20075 11.0768 5.20303 11.0906 5.21075 11.1054C5.21848 11.1201 5.22856 11.1299 5.23699 11.1352C5.24308 11.1391 5.25329 11.1442 5.27496 11.1442H9.46246C9.87667 11.1442 10.2125 11.48 10.2125 11.8942V16.6633C10.2125 16.6827 10.2154 16.6931 10.2168 16.6971C10.2183 16.7015 10.2201 16.7045 10.2223 16.7074C10.2276 16.7141 10.2406 16.7255 10.263 16.7325C10.2854 16.7395 10.3028 16.7376 10.3111 16.735C10.3147 16.7339 10.3179 16.7324 10.3216 16.7296C10.3251 16.7271 10.3334 16.7203 10.3444 16.7044L15.3531 9.46922C15.3532 9.46915 15.3531 9.4693 15.3531 9.46922C15.3654 9.45145 15.3671 9.43994 15.3674 9.43272C15.3678 9.42269 15.3655 9.40871 15.3577 9.39381C15.3499 9.3789 15.3398 9.36908 15.3314 9.36379C15.3254 9.35998 15.3154 9.355 15.2941 9.355H11.1066C10.6924 9.355 10.3566 9.01922 10.3566 8.605V3.83584C10.3566 3.81643 10.3537 3.80611 10.3523 3.80203C10.3508 3.79772 10.349 3.79468 10.3467 3.79179C10.3415 3.7851 10.3285 3.77363 10.3061 3.76663C10.2836 3.75963 10.2663 3.76161 10.258 3.76418C10.2544 3.76529 10.2512 3.76682 10.2475 3.76953C10.244 3.77208 10.2357 3.77896 10.2247 3.79473ZM8.99187 2.94027C9.86916 1.67449 11.8566 2.29303 11.8566 3.83584V7.855H15.2941C16.562 7.855 17.308 9.2796 16.5868 10.3225L11.5774 17.5586C10.7002 18.8243 8.71246 18.2061 8.71246 16.6633V12.6442H5.27496C4.00717 12.6442 3.25947 11.2201 3.98247 10.1764L8.99187 2.94027Z" fill="white"></path></svg> 