<svg width="20" height="20" viewBox="0 0 20 20" fill="none" xmlns="http://www.w3.org/2000/svg">
<path d="M2.5 5.83333V14.1667C2.5 15.0833 3.25 15.8333 4.16667 15.8333H15.8333C16.75 15.8333 17.5 15.0833 17.5 14.1667V5.83333M2.99001 15.3433L8.06834 10.265M11.9667 10.3L17.01 15.3433M2.5 5.66666C2.5 6.16666 2.75 6.58333 3.16667 6.91666L8.16667 10.3333C9.33333 11.0833 10.75 11.0833 11.9167 10.3333L16.9167 7C17.25 6.58333 17.5 6.16666 17.5 5.66666C17.5 4.83333 16.8333 4.16666 16 4.16666H4C3.16667 4.16666 2.5 4.83333 2.5 5.66666Z" stroke="#63686E" stroke-width="1.5" stroke-linecap="round" stroke-linejoin="round"/>
</svg>
