<svg viewBox="0 0 37 24" fill="none" xmlns="http://www.w3.org/2000/svg">
<path d="M3.76172 2.92771V4.44966H4.40562H5.04952V3.57161V2.69356L19.0749 2.71698L33.0885 2.7521V12.0009V21.2497L19.0749 21.2848L5.04952 21.3082V20.4301V19.5521H4.40562H3.76172V21.074V22.596L19.0749 22.5726L34.3763 22.5375V12.0009V1.4643L19.0749 1.42917L3.76172 1.40576V2.92771Z" fill="#73777D"/>
<path d="M2.44132 6.51033C2.39449 6.55716 2.35937 7.00204 2.35937 7.50545V8.41861L2.74571 8.45375L3.12035 8.48887V12.0011V15.5133L2.734 15.5484L2.34766 15.5835L2.38278 16.5435L2.41791 17.5035H4.11547H5.81303L5.84815 16.5435L5.88327 15.5835L5.49693 15.5484L5.11059 15.5133L5.07547 12.2118L5.05205 8.89862L4.66571 8.6996L4.29108 8.48887L5.08717 8.45375L5.88327 8.41861L5.84815 7.45862L5.81303 6.49862L4.1623 6.4635C3.26083 6.45179 2.48815 6.47521 2.44132 6.51033Z" fill="#73777D"/>
<path d="M7.03906 12.0009V17.5619H9.70833C11.1717 17.5619 12.5649 17.5033 12.799 17.4448C13.3844 17.2809 13.9347 16.8009 14.1922 16.2155C14.3561 15.8526 14.4147 15.4546 14.4147 14.4828C14.4147 13.0311 14.2508 12.516 13.7005 12.2233C13.5132 12.1297 13.361 12.0243 13.361 12.0009C13.361 11.9775 13.5132 11.8721 13.7005 11.7785C14.2508 11.4858 14.4147 10.9707 14.4147 9.51897C14.4147 8.54726 14.3561 8.14921 14.1922 7.78628C13.9347 7.20092 13.3844 6.72092 12.799 6.55702C12.5649 6.49848 11.1717 6.43994 9.70833 6.43994H7.03906V12.0009ZM12.2137 8.62921C12.3776 8.78141 12.4244 8.99214 12.4244 9.69458C12.4244 10.9941 12.401 11.0058 10.4693 11.0058H8.91223V9.71799V8.43019H10.4576C11.722 8.43019 12.0381 8.46531 12.2137 8.62921ZM12.2371 13.2536C12.3659 13.4292 12.4244 13.7804 12.4244 14.3541C12.4244 15.1385 12.401 15.2204 12.1083 15.4546C11.8273 15.677 11.6751 15.6887 10.3874 15.6653L8.97077 15.6302L8.93565 14.5531C8.90053 13.476 8.90053 13.4643 8.56101 13.2887C8.36199 13.1833 8.20979 13.078 8.20979 13.0546C8.20979 13.0194 9.07614 12.996 10.1298 12.996C11.9912 12.996 12.0615 13.0077 12.2371 13.2536Z" fill="#73777D"/>
<path d="M17.459 7.37653V8.31311H18.7936C20.1633 8.31311 20.4912 8.40677 19.976 8.64092L19.6833 8.78141V11.9892V15.2087L19.379 15.4428C19.098 15.6653 18.9107 15.6887 17.2131 15.6887H15.3516V16.6253V17.5619H17.576C19.9526 17.5619 20.3741 17.4916 20.9477 16.9414C21.5565 16.3794 21.5565 16.3911 21.5565 11.2399V6.43994H19.5077H17.459V7.37653Z" fill="#73777D"/>
<path d="M22.8438 12.0009V17.5619H23.7803H24.7169V15.5248V13.4877L24.3424 13.2419L23.9559 12.996H25.8993C27.632 12.996 27.8662 13.0194 28.0301 13.2068C28.2057 13.3941 28.2291 13.7336 28.2291 15.4897V17.5619H29.2242H30.2193V15.3024C30.2193 13.2653 30.1959 13.0194 29.9852 12.6682C29.8564 12.4575 29.6222 12.2233 29.4583 12.1531L29.1657 12.0243L29.5169 11.8136C30.1374 11.4389 30.2427 11.0409 30.1959 9.37848C30.1608 7.96189 30.1491 7.85653 29.833 7.41165C29.6105 7.08385 29.3062 6.8497 28.9315 6.6858C28.4047 6.46336 28.1471 6.43994 25.6066 6.43994H22.8438V12.0009ZM27.9832 8.59409C28.194 8.78141 28.2291 8.95702 28.2291 9.69458C28.2291 10.9941 28.2057 11.0058 26.274 11.0058H24.7169V9.74141C24.7169 9.03897 24.752 8.43019 24.7988 8.38336C24.8574 8.33653 25.5364 8.31311 26.3091 8.33653C27.5149 8.35994 27.7725 8.40677 27.9832 8.59409Z" fill="#73777D"/>
</svg>
