<svg viewBox="0 0 20 20" fill="none" xmlns="http://www.w3.org/2000/svg">
<path d="M9.72201 3.16911C11.9486 3.16911 12.2122 3.17887 13.0879 3.21794C13.9017 3.25374 14.3411 3.39046 14.6341 3.50439C15.0215 3.65413 15.3014 3.83643 15.5911 4.12614C15.8841 4.41911 16.0632 4.6958 16.2129 5.08317C16.3268 5.37614 16.4635 5.81885 16.4994 6.62939C16.5384 7.5083 16.5482 7.77197 16.5482 9.99528C16.5482 12.2218 16.5384 12.4855 16.4994 13.3612C16.4635 14.175 16.3268 14.6144 16.2129 14.9074C16.0632 15.2948 15.8809 15.5747 15.5911 15.8644C15.2982 16.1574 15.0215 16.3364 14.6341 16.4862C14.3411 16.6001 13.8984 16.7368 13.0879 16.7726C12.209 16.8117 11.9453 16.8215 9.72201 16.8215C7.49544 16.8215 7.23177 16.8117 6.35612 16.7726C5.54232 16.7368 5.10287 16.6001 4.8099 16.4862C4.42253 16.3364 4.14258 16.1541 3.85286 15.8644C3.5599 15.5715 3.38086 15.2948 3.23112 14.9074C3.11719 14.6144 2.98047 14.1717 2.94466 13.3612C2.9056 12.4823 2.89583 12.2186 2.89583 9.99528C2.89583 7.76872 2.9056 7.50505 2.94466 6.62939C2.98047 5.81559 3.11719 5.37614 3.23112 5.08317C3.38086 4.6958 3.56315 4.41585 3.85286 4.12614C4.14583 3.83317 4.42253 3.65413 4.8099 3.50439C5.10287 3.39046 5.54557 3.25374 6.35612 3.21794C7.23177 3.17887 7.49544 3.16911 9.72201 3.16911ZM9.72201 1.66846C7.45964 1.66846 7.17643 1.67822 6.28776 1.71729C5.40234 1.75635 4.79362 1.89958 4.26628 2.10465C3.71615 2.3195 3.25065 2.6027 2.78841 3.0682C2.32292 3.53044 2.03971 3.99593 1.82487 4.54281C1.61979 5.07341 1.47656 5.67887 1.4375 6.56429C1.39844 7.45622 1.38867 7.73942 1.38867 10.0018C1.38867 12.2642 1.39844 12.5474 1.4375 13.436C1.47656 14.3215 1.61979 14.9302 1.82487 15.4575C2.03971 16.0077 2.32292 16.4731 2.78841 16.9354C3.25065 17.3976 3.71615 17.6841 4.26302 17.8957C4.79362 18.1007 5.39909 18.244 6.28451 18.283C7.17318 18.3221 7.45638 18.3319 9.71875 18.3319C11.9811 18.3319 12.2643 18.3221 13.153 18.283C14.0384 18.244 14.6471 18.1007 15.1745 17.8957C15.7214 17.6841 16.1869 17.3976 16.6491 16.9354C17.1113 16.4731 17.3978 16.0077 17.6094 15.4608C17.8145 14.9302 17.9577 14.3247 17.9967 13.4393C18.0358 12.5506 18.0456 12.2674 18.0456 10.005C18.0456 7.74268 18.0358 7.45947 17.9967 6.5708C17.9577 5.68538 17.8145 5.07666 17.6094 4.54932C17.4043 3.99593 17.1211 3.53044 16.6556 3.0682C16.1934 2.60596 15.7279 2.3195 15.181 2.10791C14.6504 1.90283 14.0449 1.7596 13.1595 1.72054C12.2676 1.67822 11.9844 1.66846 9.72201 1.66846Z" fill="#63686E"/>
<path d="M9.72201 5.72119C7.35873 5.72119 5.44141 7.63851 5.44141 10.0018C5.44141 12.3651 7.35873 14.2824 9.72201 14.2824C12.0853 14.2824 14.0026 12.3651 14.0026 10.0018C14.0026 7.63851 12.0853 5.72119 9.72201 5.72119ZM9.72201 12.7785C8.1888 12.7785 6.94531 11.535 6.94531 10.0018C6.94531 8.46859 8.1888 7.2251 9.72201 7.2251C11.2552 7.2251 12.4987 8.46859 12.4987 10.0018C12.4987 11.535 11.2552 12.7785 9.72201 12.7785Z" fill="#63686E"/>
<path d="M15.1712 5.55189C15.1712 6.10528 14.722 6.55124 14.1719 6.55124C13.6185 6.55124 13.1725 6.10202 13.1725 5.55189C13.1725 4.9985 13.6217 4.55254 14.1719 4.55254C14.722 4.55254 15.1712 5.00176 15.1712 5.55189Z" fill="#63686E"/>
</svg>
