<svg xmlns="http://www.w3.org/2000/svg" viewBox="0 0 145 24" fill="none"><g clip-path="url(#clip0_4750_343104)"><path d="M56.8867 22.1283L57.4858 19.543C58.752 20.3119 60.0082 20.5243 61.4596 20.5243C62.911 20.5243 63.7135 20.0018 63.7135 19.0176C63.7135 18.2178 63.1578 17.7256 61.6444 17.2022L61.1813 17.0481C58.2475 16.0334 57.0124 14.7724 57.0124 12.4962C57.0124 9.82069 58.7416 8.22168 62.0764 8.22168C63.4662 8.22168 65.2403 8.5195 66.7803 9.2697L66.0813 11.8054C64.8767 11.1288 63.7131 10.9281 62.3543 10.9281C61.0887 10.9281 60.3472 11.4188 60.3472 12.2813C60.3472 13.0502 60.8724 13.5114 62.3853 14.0344L62.8485 14.188C65.8443 15.2032 67.0794 16.4941 67.0794 18.6476C67.0794 21.4443 65.1954 23.2299 61.6109 23.2299C60.13 23.2327 58.2144 22.6842 56.8867 22.1283Z" fill="#787878"></path><path d="M67.668 15.7596C67.668 11.0537 70.5402 8.22461 75.1412 8.22461C76.6236 8.22461 78.7376 8.69171 79.7954 9.50029L79.0964 12.3864C78.2371 11.7819 76.8399 11.3314 75.3264 11.3314C72.671 11.3314 71.0344 12.8692 71.0344 15.7292C71.0344 18.5259 72.7326 20.1274 75.3885 20.1274C76.9015 20.1274 78.1844 19.7608 79.3574 18.838L79.757 21.9227C78.5347 22.8226 76.6852 23.2333 75.1722 23.2333C70.5387 23.2327 67.668 20.4037 67.668 15.7596Z" fill="#787878"></path><path d="M80.3887 19.0804C80.3887 16.374 82.2416 14.7136 85.8853 14.1597L88.7575 13.6985V13.145C88.7575 11.7609 87.7072 11.1152 85.7616 11.1152C84.0945 11.1152 82.6116 11.5607 81.4863 12.489L80.8375 9.48908C82.5096 8.61674 84.6192 8.10254 86.2568 8.10254C90.0862 8.10254 92.1244 9.85564 92.1244 13.0542V22.9252H89.0364L88.79 20.9876C87.9564 22.4022 86.4745 23.2324 84.8064 23.2324C82.1179 23.2324 80.3887 21.6024 80.3887 19.0804ZM88.7575 17.636V16.0359L86.3179 16.4049C84.6813 16.6502 83.7235 17.4505 83.7235 18.711C83.7235 19.8493 84.5265 20.5563 85.8547 20.5563C85.8912 20.5563 85.9282 20.5563 85.9647 20.5563C87.5294 20.5048 88.7575 19.1948 88.7575 17.636Z" fill="#787878"></path><path d="M93.8223 9.02733L97.1881 8.5303V10.4679C98.2381 8.99151 99.7206 8.22266 101.419 8.22266C104.476 8.22266 106.297 10.1907 106.297 13.6046V22.9251H102.931V14.2214C102.931 12.2529 102.005 11.2687 100.369 11.2687C100.333 11.2687 100.297 11.2687 100.261 11.2687C98.5413 11.3177 97.1881 12.7538 97.1881 14.4672V22.9251H93.8223V9.02733Z" fill="#787878"></path><path d="M108.089 9.02733L111.455 8.5303V10.4679C112.505 8.99151 113.987 8.22266 115.685 8.22266C118.743 8.22266 120.563 10.1907 120.563 13.6046V22.9251H117.197V14.2214C117.197 12.2529 116.27 11.2687 114.634 11.2687H114.527C112.807 11.3177 111.454 12.7538 111.454 14.4672V22.9251H108.088L108.089 9.02733Z" fill="#787878"></path><path d="M121.77 15.6977C121.77 11.2078 124.363 8.22461 128.501 8.22461C132.455 8.22461 134.863 10.8079 134.863 15.821V16.8052H125.197C125.259 19.0195 126.835 20.4037 129.521 20.4037C131.097 20.4037 133.032 19.8801 134.7 18.8655L133.938 22.1803C132.146 23.0414 130.849 23.2327 129.057 23.2327C124.456 23.2327 121.77 20.3728 121.77 15.6977ZM125.197 14.3141H131.497C131.497 12.2534 130.385 10.9615 128.501 10.9615C126.556 10.9615 125.32 12.3152 125.197 14.3141Z" fill="#787878"></path><path d="M136.127 8.53238H139.493V10.1113L139.734 10.1751C140.464 8.88958 141.578 8.22474 142.767 8.22474C143.236 8.22138 143.704 8.28347 144.156 8.40922V12.07C143.521 11.8483 142.853 11.7341 142.18 11.7319C141.037 11.7319 140.049 12.2854 139.493 13.0543V22.9257H136.127V8.53238Z" fill="#787878"></path><path d="M15.8262 15.9201C15.8262 11.1538 18.6541 8.05877 22.8496 8.05877C23.7511 8.05877 24.963 8.3041 25.707 8.64756V1.25094L29.9336 0.753906V22.9153H26.0509L25.7415 20.9963C25.0266 22.327 23.5348 23.2249 22.012 23.2249C18.2811 23.2249 15.8262 20.3462 15.8262 15.9201ZM25.7089 18.0868V12.3299C25.1493 11.9276 24.2803 11.6798 23.5334 11.6798C21.4514 11.6798 20.0848 13.2891 20.0848 15.7346C20.0848 17.9916 21.2671 19.5126 23.0682 19.5126C24.0615 19.5106 25.0251 18.9533 25.7089 18.0868Z" fill="white"></path><path d="M30.8066 15.9201C30.8066 11.1538 33.635 8.05877 37.8305 8.05877C38.7316 8.05877 39.944 8.3041 40.688 8.64756V1.25094L44.9145 0.753906V22.9153H41.0314L40.7195 20.9963C40.0046 22.327 38.5129 23.2249 36.99 23.2249C33.262 23.2249 30.8066 20.3462 30.8066 15.9201ZM40.6899 18.0868V12.3299C40.1302 11.9276 39.2612 11.6798 38.5144 11.6798C36.4318 11.6798 35.0657 13.2891 35.0657 15.7346C35.0657 17.9916 36.248 19.5126 38.0493 19.5126C39.0444 19.5106 40.0061 18.9533 40.6899 18.0868Z" fill="white"></path><path d="M45.7852 22.213L46.3763 18.9512C47.6504 19.663 48.9875 19.852 50.3846 19.852C51.5971 19.852 52.2493 19.5424 52.2493 18.8923C52.2493 18.3663 51.9075 18.0581 50.6335 17.5925L50.1984 17.4374C47.0591 16.3232 45.7852 14.9925 45.7852 12.6094C45.7852 9.7636 47.5588 8.05957 51.1926 8.05957C52.5603 8.05957 54.5151 8.38733 56.3961 9.21163L55.5492 12.3028C54.3373 11.6835 52.8711 11.4304 51.5656 11.4304C50.5403 11.4304 49.9807 11.74 49.9807 12.3283C49.9807 12.8852 50.3536 13.1624 51.7213 13.6589L52.1562 13.814C55.2329 14.8974 56.4424 16.228 56.4424 18.3947C56.4424 21.3661 54.4846 23.2233 50.5689 23.2233C49.1426 23.2257 47.1227 22.7085 45.7852 22.213Z" fill="white"></path><path d="M4.93081 18.1446C7.36518 17.6812 9.59707 16.4819 11.3226 14.7101C11.1647 14.0105 10.8087 13.3706 10.2969 12.8662C8.56089 14.5913 6.33991 15.7511 3.92773 16.1919C4.0588 16.9279 4.40815 17.6081 4.93081 18.1446Z" fill="#787878"></path><path d="M4.29995 18.3045C3.71487 17.6019 3.36783 16.7331 3.30847 15.8223C3.2491 14.9115 3.48046 14.0054 3.96944 13.2334C4.45843 12.4614 5.17999 11.8632 6.03096 11.5243C6.88192 11.1854 7.8187 11.1231 8.70731 11.3465C9.51128 10.5124 10.8957 9.6547 11.8505 9.18176C10.6986 8.42491 9.36229 7.99283 7.98363 7.93143C6.60496 7.87002 5.23533 8.18156 4.02013 8.83296C2.80494 9.4844 1.78954 10.4513 1.08173 11.6312C0.373911 12.8111 0.000108463 14.1599 0 15.5342V15.5412C0 15.5622 0 15.5834 0 15.6044V15.6236C0.0086627 16.5135 0.174422 17.3952 0.489706 18.228C1.74879 18.4431 3.03317 18.469 4.29995 18.3045Z" fill="white"></path><path d="M15.2832 15.5345V15.5237C15.2832 15.4835 15.2832 15.4428 15.2832 15.4025C15.2832 15.3849 15.2832 15.3672 15.2832 15.3491C15.2832 15.3137 15.2832 15.2779 15.2798 15.2426C15.2763 15.2073 15.2773 15.1842 15.2763 15.1553C15.2763 15.1499 15.2763 15.144 15.2763 15.1385C15.1978 13.5924 14.6456 12.1073 13.6939 10.8832H13.6894L13.6402 10.8184C12.7894 11.153 11.534 11.8488 10.7226 12.4866C11.329 13.0924 11.7415 13.8637 11.9079 14.7029C12.0743 15.5421 11.9871 16.4116 11.6574 17.2015C11.3277 17.9914 10.7703 18.6663 10.0556 19.1406C9.34087 19.6151 8.50095 19.8678 7.64202 19.867C7.43431 19.8669 7.22687 19.8522 7.02127 19.8229C5.5093 20.3287 3.40711 20.6623 1.9375 20.604C2.96798 21.7552 4.3253 22.5674 5.82967 22.933C7.33403 23.2986 8.91445 23.2005 10.3615 22.6516C11.8087 22.1026 13.0542 21.1288 13.9331 19.8591C14.812 18.5893 15.2828 17.0836 15.2832 15.5414V15.5345Z" fill="white"></path></g><defs><clipPath id="clip0_4750_343104"><rect width="144.157" height="24" fill="white"></rect></clipPath></defs></svg> 