<svg viewBox="0 0 20 20" fill="none" xmlns="http://www.w3.org/2000/svg">
<path d="M17.0999 1.66846H2.89746C2.21712 1.66846 1.66699 2.20557 1.66699 2.86963V17.1307C1.66699 17.7948 2.21712 18.3351 2.89746 18.3351H17.0999C17.7803 18.3351 18.3337 17.7948 18.3337 17.134V2.86963C18.3337 2.20557 17.7803 1.66846 17.0999 1.66846ZM6.61165 15.8709H4.1377V7.9152H6.61165V15.8709ZM5.37467 6.83122C4.5804 6.83122 3.93913 6.18994 3.93913 5.39893C3.93913 4.60791 4.5804 3.96663 5.37467 3.96663C6.16569 3.96663 6.80697 4.60791 6.80697 5.39893C6.80697 6.18669 6.16569 6.83122 5.37467 6.83122ZM15.8695 15.8709H13.3988V12.0037C13.3988 11.0825 13.3825 9.89437 12.113 9.89437C10.8271 9.89437 10.6318 10.9002 10.6318 11.9386V15.8709H8.16439V7.9152H10.5342V9.00244H10.5667C10.8955 8.37744 11.7028 7.71663 12.904 7.71663C15.4072 7.71663 15.8695 9.36377 15.8695 11.5057V15.8709Z" fill="#63686E"/>
</svg>
