<svg  viewBox="0 0 20 20" fill="none" xmlns="http://www.w3.org/2000/svg">
<path d="M10.0003 1.66846C5.39799 1.66846 1.66699 5.39946 1.66699 10.0018C1.66699 13.9098 4.35766 17.1891 7.98733 18.0898V12.5485H6.26899V10.0018H7.98733V8.90446C7.98733 6.06812 9.27099 4.75346 12.0557 4.75346C12.5837 4.75346 13.4947 4.85712 13.8673 4.96046V7.26879C13.6707 7.24812 13.329 7.23779 12.9047 7.23779C11.5383 7.23779 11.0103 7.75546 11.0103 9.10112V10.0018H13.7323L13.2647 12.5485H11.0103V18.2741C15.1367 17.7758 18.334 14.2625 18.334 10.0018C18.3337 5.39946 14.6027 1.66846 10.0003 1.66846Z" fill="#63686E"/>
</svg>
