<svg  viewBox="0 0 17 16" fill="none" xmlns="http://www.w3.org/2000/svg">
<path d="M13.0785 2.91105H13.8057V3.63832C13.8057 3.83121 13.8823 4.01619 14.0187 4.15258C14.1551 4.28897 14.3401 4.3656 14.533 4.3656C14.7259 4.3656 14.9109 4.28897 15.0473 4.15258C15.1836 4.01619 15.2603 3.83121 15.2603 3.63832V2.91105H15.9875C16.1804 2.91105 16.3654 2.83443 16.5018 2.69804C16.6382 2.56165 16.7148 2.37667 16.7148 2.18378C16.7148 1.9909 16.6382 1.80591 16.5018 1.66952C16.3654 1.53313 16.1804 1.45651 15.9875 1.45651H15.2603V0.729241C15.2603 0.536356 15.1836 0.351372 15.0473 0.214982C14.9109 0.0785925 14.7259 0.00196952 14.533 0.00196952C14.3401 0.00196952 14.1551 0.0785925 14.0187 0.214982C13.8823 0.351372 13.8057 0.536356 13.8057 0.729241V1.45651H13.0785C12.8856 1.45651 12.7006 1.53313 12.5642 1.66952C12.4278 1.80591 12.3512 1.9909 12.3512 2.18378C12.3512 2.37667 12.4278 2.56165 12.5642 2.69804C12.7006 2.83443 12.8856 2.91105 13.0785 2.91105ZM5.07847 4.3656V11.6383C5.07847 11.8312 5.1551 12.0162 5.29149 12.1526C5.42788 12.289 5.61286 12.3656 5.80574 12.3656C5.99863 12.3656 6.18361 12.289 6.32 12.1526C6.45639 12.0162 6.53302 11.8312 6.53302 11.6383V4.3656C6.53302 4.17271 6.45639 3.98773 6.32 3.85134C6.18361 3.71495 5.99863 3.63832 5.80574 3.63832C5.61286 3.63832 5.42788 3.71495 5.29149 3.85134C5.1551 3.98773 5.07847 4.17271 5.07847 4.3656ZM15.6966 5.82014C15.603 5.83922 15.5141 5.87656 15.4349 5.93002C15.3558 5.98348 15.2879 6.05202 15.2352 6.13171C15.1825 6.2114 15.1461 6.30069 15.1279 6.39448C15.1097 6.48827 15.1102 6.58472 15.1294 6.67832C15.4133 8.05737 15.245 9.49123 14.6494 10.7671C14.0539 12.0429 13.0628 13.0926 11.8233 13.7605C10.5838 14.4284 9.16196 14.6788 7.76887 14.4746C6.37578 14.2703 5.08568 13.6223 4.09009 12.6267C3.09449 11.6311 2.44647 10.341 2.24221 8.94791C2.03796 7.55482 2.28836 6.13299 2.95625 4.8935C3.62413 3.654 4.6739 2.66291 5.94972 2.06734C7.22555 1.47176 8.65941 1.30347 10.0385 1.58742C10.2313 1.626 10.4317 1.58637 10.5953 1.47726C10.759 1.36815 10.8726 1.19849 10.9112 1.0056C10.9498 0.812719 10.9101 0.61241 10.801 0.448743C10.6919 0.285075 10.5223 0.171455 10.3294 0.132878C9.79714 0.0337158 9.25608 -0.0101537 8.71483 0.00196952C7.13258 0.00196952 5.58587 0.47116 4.27028 1.35021C2.95469 2.22926 1.92931 3.47869 1.32381 4.94049C0.71831 6.4023 0.559884 8.01083 0.868565 9.56267C1.17725 11.1145 1.93917 12.54 3.05799 13.6588C4.17681 14.7776 5.60227 15.5395 7.15411 15.8482C8.70595 16.1569 10.3145 15.9985 11.7763 15.393C13.2381 14.7875 14.4875 13.7621 15.3666 12.4465C16.2456 11.1309 16.7148 9.5842 16.7148 8.00195C16.7164 7.46455 16.6627 6.92841 16.5548 6.40196C16.5374 6.30704 16.5013 6.21655 16.4485 6.13574C16.3958 6.05493 16.3275 5.98542 16.2476 5.93127C16.1677 5.87712 16.0779 5.83941 15.9833 5.82033C15.8887 5.80125 15.7913 5.80118 15.6966 5.82014ZM7.98756 5.82014V6.54741C7.99077 7.08563 8.1928 7.60367 8.55483 8.00195C8.1928 8.40023 7.99077 8.91827 7.98756 9.45649V10.1838C7.98756 10.7624 8.21743 11.3174 8.6266 11.7265C9.03577 12.1357 9.59072 12.3656 10.1694 12.3656H10.8966C11.4753 12.3656 12.0302 12.1357 12.4394 11.7265C12.8486 11.3174 13.0785 10.7624 13.0785 10.1838V9.45649C13.0752 8.91827 12.8732 8.40023 12.5112 8.00195C12.8732 7.60367 13.0752 7.08563 13.0785 6.54741V5.82014C13.0785 5.24149 12.8486 4.68653 12.4394 4.27736C12.0302 3.86819 11.4753 3.63832 10.8966 3.63832H10.1694C9.59072 3.63832 9.03577 3.86819 8.6266 4.27736C8.21743 4.68653 7.98756 5.24149 7.98756 5.82014ZM11.6239 10.1838C11.6239 10.3766 11.5473 10.5616 11.4109 10.698C11.2745 10.8344 11.0895 10.911 10.8966 10.911H10.1694C9.97649 10.911 9.7915 10.8344 9.65511 10.698C9.51872 10.5616 9.4421 10.3766 9.4421 10.1838V9.45649C9.4421 9.26361 9.51872 9.07863 9.65511 8.94224C9.7915 8.80585 9.97649 8.72922 10.1694 8.72922H10.8966C11.0895 8.72922 11.2745 8.80585 11.4109 8.94224C11.5473 9.07863 11.6239 9.26361 11.6239 9.45649V10.1838ZM11.6239 5.82014V6.54741C11.6239 6.74029 11.5473 6.92528 11.4109 7.06167C11.2745 7.19806 11.0895 7.27468 10.8966 7.27468H10.1694C9.97649 7.27468 9.7915 7.19806 9.65511 7.06167C9.51872 6.92528 9.4421 6.74029 9.4421 6.54741V5.82014C9.4421 5.62725 9.51872 5.44227 9.65511 5.30588C9.7915 5.16949 9.97649 5.09287 10.1694 5.09287H10.8966C11.0895 5.09287 11.2745 5.16949 11.4109 5.30588C11.5473 5.44227 11.6239 5.62725 11.6239 5.82014Z" fill="#63686E"/>
</svg>
