<svg viewBox="0 0 19 24" fill="none" xmlns="http://www.w3.org/2000/svg">
<path d="M9.8577 18.2867C9.25149 18.2867 8.67011 18.0459 8.24146 17.6172C7.8128 17.1886 7.57199 16.6072 7.57199 16.001C7.57199 14.7324 8.58913 13.7153 9.8577 13.7153C10.4639 13.7153 11.0453 13.9561 11.4739 14.3847C11.9026 14.8134 12.1434 15.3948 12.1434 16.001C12.1434 16.6072 11.9026 17.1886 11.4739 17.6172C11.0453 18.0459 10.4639 18.2867 9.8577 18.2867ZM16.7148 21.7153V10.2867H3.00056V21.7153H16.7148ZM16.7148 8.00098C17.3211 8.00098 17.9024 8.24179 18.3311 8.67045C18.7597 9.0991 19.0006 9.68048 19.0006 10.2867V21.7153C19.0006 22.3215 18.7597 22.9029 18.3311 23.3315C17.9024 23.7602 17.3211 24.001 16.7148 24.001H3.00056C2.39435 24.001 1.81297 23.7602 1.38431 23.3315C0.955659 22.9029 0.714844 22.3215 0.714844 21.7153V10.2867C0.714844 9.01812 1.73199 8.00098 3.00056 8.00098H4.14342V5.71526C4.14342 4.19974 4.74545 2.74629 5.81709 1.67465C6.88873 0.603016 8.34218 0.000976563 9.8577 0.000976562C10.6081 0.000976562 11.3512 0.148781 12.0445 0.435951C12.7378 0.72312 13.3677 1.14403 13.8983 1.67465C14.4289 2.20527 14.8498 2.83521 15.137 3.5285C15.4242 4.22179 15.572 4.96485 15.572 5.71526V8.00098H16.7148ZM9.8577 2.28669C8.94839 2.28669 8.07632 2.64791 7.43333 3.2909C6.79035 3.93388 6.42913 4.80595 6.42913 5.71526V8.00098H13.2863V5.71526C13.2863 4.80595 12.925 3.93388 12.2821 3.2909C11.6391 2.64791 10.767 2.28669 9.8577 2.28669Z" fill="#73777D"/>
</svg>
