<svg  viewBox="0 0 18 12" fill="none" xmlns="http://www.w3.org/2000/svg">
<path d="M17.1676 2.66846C17.1676 2.66846 17.0049 1.51937 16.5036 1.01481C15.8688 0.350749 15.1592 0.347493 14.8337 0.308431C12.5029 0.13916 9.00358 0.13916 9.00358 0.13916H8.99707C8.99707 0.13916 5.49772 0.13916 3.16699 0.308431C2.84147 0.347493 2.13184 0.350749 1.49707 1.01481C0.995768 1.51937 0.836263 2.66846 0.836263 2.66846C0.836263 2.66846 0.666992 4.01937 0.666992 5.36703V6.63005C0.666992 7.9777 0.833008 9.32861 0.833008 9.32861C0.833008 9.32861 0.995768 10.4777 1.49382 10.9823C2.12858 11.6463 2.96191 11.6235 3.33301 11.6952C4.66764 11.8221 9.00033 11.8612 9.00033 11.8612C9.00033 11.8612 12.5029 11.8547 14.8337 11.6886C15.1592 11.6496 15.8688 11.6463 16.5036 10.9823C17.0049 10.4777 17.1676 9.32861 17.1676 9.32861C17.1676 9.32861 17.3337 7.98096 17.3337 6.63005V5.36703C17.3337 4.01937 17.1676 2.66846 17.1676 2.66846ZM7.27832 8.16325V3.479L11.7803 5.82926L7.27832 8.16325Z" fill="#63686E"/>
</svg>
