<svg viewBox="0 0 49 24" fill="none" xmlns="http://www.w3.org/2000/svg">
<g clip-path="url(#clip0_8672_20618)">
<path fill-rule="evenodd" clip-rule="evenodd" d="M2.71484 0.000976562H46.7148C47.2453 0.000976563 47.754 0.21169 48.1291 0.586763C48.5041 0.961836 48.7148 1.47054 48.7148 2.00098V22.001C48.7148 22.5314 48.5041 23.0401 48.1291 23.4152C47.754 23.7903 47.2453 24.001 46.7148 24.001H2.71484C2.18441 24.001 1.6757 23.7903 1.30063 23.4152C0.925557 23.0401 0.714844 22.5314 0.714844 22.001L0.714844 2.00098C0.714844 1.47054 0.925557 0.961836 1.30063 0.586763C1.6757 0.21169 2.18441 0.000976563 2.71484 0.000976563V0.000976562ZM4.04818 1.66764H45.3815C45.9119 1.66764 46.4207 1.87836 46.7957 2.25343C47.1708 2.6285 47.3815 3.13721 47.3815 3.66764V14.3343C47.3815 14.8647 47.1708 15.3735 46.7957 15.7485C46.4207 16.1236 45.9119 16.3343 45.3815 16.3343H4.04818C3.51774 16.3343 3.00904 16.1236 2.63396 15.7485C2.25889 15.3735 2.04818 14.8647 2.04818 14.3343V3.66764C2.04818 3.13721 2.25889 2.6285 2.63396 2.25343C3.00904 1.87836 3.51774 1.66764 4.04818 1.66764ZM5.66484 21.6676H6.26151L5.22484 18.8743H4.58151L3.54151 21.6676H4.13818L4.33818 21.101H5.47151L5.66484 21.6676ZM4.48484 20.6676L4.90151 19.4776L5.31818 20.6676H4.48484ZM7.99151 20.6176C8.26164 20.6337 8.528 20.5481 8.73818 20.3776C8.90467 20.2029 8.99754 19.9707 8.99754 19.7293C8.99754 19.4879 8.90467 19.2558 8.73818 19.081C8.52725 18.9071 8.25747 18.8212 7.98484 18.841H6.96484V21.6676H7.52818V20.621L7.99151 20.6176ZM7.93151 20.1643H7.52818V19.301H7.93151C8.06817 19.2871 8.20479 19.3278 8.31151 19.4143C8.35418 19.4579 8.38675 19.5104 8.40691 19.568C8.42707 19.6256 8.43433 19.6869 8.42818 19.7476C8.43369 19.8548 8.39698 19.9598 8.32594 20.0402C8.2549 20.1206 8.15518 20.1699 8.04818 20.1776C8.01056 20.1825 7.97246 20.1825 7.93484 20.1776L7.93151 20.1643ZM10.7948 20.6176C11.0651 20.6347 11.3318 20.549 11.5415 20.3776C11.7073 20.2025 11.7996 19.9705 11.7996 19.7293C11.7996 19.4882 11.7073 19.2562 11.5415 19.081C11.3291 18.9075 11.0584 18.8217 10.7848 18.841H9.76818V21.6676H10.3315V20.621L10.7948 20.6176ZM10.7382 20.1643H10.3315V19.301H10.7382C10.8738 19.2876 11.0091 19.3283 11.1148 19.4143C11.1575 19.4579 11.1901 19.5104 11.2102 19.568C11.2304 19.6256 11.2377 19.6869 11.2315 19.7476C11.2356 19.8015 11.229 19.8557 11.2121 19.907C11.1952 19.9583 11.1683 20.0058 11.133 20.0466C11.0977 20.0875 11.0546 20.121 11.0063 20.1452C10.958 20.1694 10.9054 20.1838 10.8515 20.1876C10.8128 20.1926 10.7736 20.1926 10.7348 20.1876L10.7382 20.1643ZM14.6715 21.6676L13.9648 20.541C14.1226 20.5175 14.2705 20.4496 14.3911 20.3452C14.5116 20.2407 14.6 20.1041 14.6458 19.9513C14.6916 19.7985 14.693 19.6358 14.6497 19.4823C14.6064 19.3288 14.5204 19.1907 14.4015 19.0843C14.1906 18.9128 13.9228 18.8271 13.6515 18.8443H12.5715V21.6676H13.1382V20.5676H13.3815L14.0482 21.6676H14.6748H14.6715ZM13.1382 19.3343H13.6015C13.7338 19.3229 13.8654 19.3636 13.9682 19.4476C14.0103 19.4917 14.0425 19.5442 14.0626 19.6017C14.0827 19.6592 14.0903 19.7203 14.0848 19.781C14.0896 19.8434 14.0799 19.9061 14.0564 19.9641C14.033 20.0222 13.9964 20.074 13.9497 20.1157C13.9029 20.1573 13.8471 20.1875 13.7867 20.2041C13.7264 20.2206 13.663 20.223 13.6015 20.211H13.1348L13.1382 19.3343ZM16.7615 18.8176C16.5118 18.8154 16.2659 18.8786 16.0482 19.001C15.8353 19.1223 15.66 19.2999 15.5415 19.5143C15.4184 19.7439 15.354 20.0004 15.354 20.261C15.354 20.5215 15.4184 20.778 15.5415 21.0076C15.6615 21.2184 15.8367 21.3924 16.0482 21.511C16.2681 21.6324 16.5153 21.696 16.7665 21.696C17.0177 21.696 17.2649 21.6324 17.4848 21.511C17.6948 21.3896 17.8677 21.2133 17.9848 21.001C18.108 20.7714 18.1724 20.5149 18.1724 20.2543C18.1724 19.9938 18.108 19.7373 17.9848 19.5076C17.8654 19.2957 17.6901 19.1205 17.4782 19.001C17.2596 18.8779 17.0124 18.8147 16.7615 18.8176ZM16.7615 19.3376C16.9134 19.3333 17.0634 19.3714 17.1948 19.4476C17.3245 19.527 17.4277 19.643 17.4915 19.781C17.5607 19.9351 17.5964 20.1021 17.5964 20.271C17.5964 20.4399 17.5607 20.6069 17.4915 20.761C17.4277 20.8989 17.3245 21.0149 17.1948 21.0943C17.0612 21.1664 16.9117 21.2041 16.7598 21.2041C16.608 21.2041 16.4585 21.1664 16.3248 21.0943C16.1962 21.0147 16.0941 20.8987 16.0315 20.761C15.9607 20.6073 15.924 20.4402 15.924 20.271C15.924 20.1018 15.9607 19.9346 16.0315 19.781C16.0941 19.6433 16.1962 19.5272 16.3248 19.4476C16.4573 19.3706 16.6083 19.3314 16.7615 19.3343V19.3376ZM18.7882 18.8576L19.7882 21.681H20.5115L21.5115 18.8576H20.9082L20.1482 21.081L19.3815 18.8443L18.7882 18.8576ZM23.9015 19.3043V18.8443H22.2148V21.6676H23.8815V21.2143H22.7815V20.4543H23.7815V20.021H22.7815V19.2876H23.9015V19.3043ZM27.2015 20.2643C27.2053 20.0068 27.1446 19.7524 27.0248 19.5243C26.9088 19.312 26.7309 19.1399 26.5148 19.031C26.2671 18.9052 25.9927 18.8411 25.7148 18.8443H24.7148V21.6676H25.7148C25.9898 21.6751 26.2624 21.6144 26.5082 21.491C26.7237 21.3816 26.9023 21.2112 27.0215 21.001C27.1443 20.7741 27.2052 20.5189 27.1982 20.261L27.2015 20.2643ZM25.6715 21.1776H25.2815V19.3343H25.6748C25.8021 19.3261 25.9297 19.3431 26.0504 19.3843C26.1711 19.4255 26.2825 19.49 26.3782 19.5743C26.5356 19.7608 26.622 19.9969 26.622 20.241C26.622 20.485 26.5356 20.7212 26.3782 20.9076C26.2825 20.9919 26.1711 21.0565 26.0504 21.0977C25.9297 21.1389 25.8021 21.1558 25.6748 21.1476L25.6715 21.1776ZM30.3382 20.6343C30.6083 20.6504 30.8747 20.5648 31.0848 20.3943C31.1725 20.3118 31.2411 20.2113 31.286 20.0996C31.3309 19.9879 31.351 19.8678 31.3448 19.7476C31.3537 19.6248 31.3356 19.5015 31.2918 19.3863C31.248 19.2712 31.1797 19.167 31.0915 19.081C30.8806 18.9071 30.6108 18.8212 30.3382 18.841H29.2982V21.6676H29.8615V20.621L30.3382 20.6343ZM30.2782 20.181H29.8615V19.301H30.2648C30.4015 19.2871 30.5381 19.3278 30.6448 19.4143C30.6868 19.4584 30.7189 19.511 30.739 19.5684C30.7591 19.6259 30.7668 19.687 30.7615 19.7476C30.7662 19.8546 30.7292 19.9591 30.6583 20.0393C30.5874 20.1195 30.4882 20.1691 30.3815 20.1776C30.3439 20.1826 30.3058 20.1826 30.2682 20.1776L30.2782 20.181ZM33.4382 18.8176C33.1851 18.8137 32.9355 18.8769 32.7148 19.001C32.502 19.1223 32.3267 19.2999 32.2082 19.5143C32.0867 19.7445 32.0233 20.0008 32.0233 20.261C32.0233 20.5212 32.0867 20.7775 32.2082 21.0076C32.3282 21.2184 32.5033 21.3924 32.7148 21.511C32.9348 21.6324 33.1819 21.696 33.4332 21.696C33.6844 21.696 33.9315 21.6324 34.1515 21.511C34.3607 21.3887 34.5334 21.2126 34.6515 21.001C34.7729 20.7708 34.8364 20.5145 34.8364 20.2543C34.8364 19.9941 34.7729 19.7378 34.6515 19.5076C34.5311 19.2952 34.3547 19.12 34.1415 19.001C33.9231 18.8775 33.6758 18.8142 33.4248 18.8176H33.4382ZM33.4382 19.3376C33.591 19.3337 33.7421 19.3718 33.8748 19.4476C34.0026 19.5283 34.1044 19.644 34.1682 19.781C34.2373 19.9351 34.2731 20.1021 34.2731 20.271C34.2731 20.4399 34.2373 20.6069 34.1682 20.761C34.1044 20.8979 34.0026 21.0137 33.8748 21.0943C33.7406 21.1664 33.5906 21.2041 33.4382 21.2041C33.2858 21.2041 33.1358 21.1664 33.0015 21.0943C32.8729 21.0147 32.7708 20.8987 32.7082 20.761C32.639 20.6069 32.6033 20.4399 32.6033 20.271C32.6033 20.1021 32.639 19.9351 32.7082 19.781C32.7708 19.6433 32.8729 19.5272 33.0015 19.4476C33.13 19.3729 33.2762 19.3338 33.4248 19.3343L33.4382 19.3376ZM37.7715 21.671L37.0482 20.541C37.2474 20.5057 37.4285 20.4034 37.5615 20.251C37.6893 20.0789 37.7515 19.8668 37.7368 19.6529C37.7221 19.439 37.6316 19.2374 37.4815 19.0843C37.2709 18.9122 37.0029 18.8264 36.7315 18.8443H35.6548V21.6676H36.2182V20.5676H36.4682L37.1348 21.6676L37.7715 21.671ZM36.2382 19.3376H36.7015C36.8339 19.3255 36.9657 19.3663 37.0682 19.451C37.1221 19.5111 37.1592 19.5845 37.1755 19.6637C37.1918 19.7428 37.1869 19.8249 37.1611 19.9015C37.1353 19.9781 37.0897 20.0465 37.0289 20.0997C36.9681 20.1529 36.8942 20.189 36.8148 20.2043C36.7772 20.2094 36.7391 20.2094 36.7015 20.2043H36.2382V19.3343V19.3376ZM38.3382 18.861V19.3076H39.1148V21.6676H39.6782V19.291H40.4582V18.8443L38.3382 18.861ZM43.0715 21.6676H43.6682L42.6315 18.8743H41.9882L40.9482 21.6676H41.5448L41.7448 21.101H42.8782L43.0715 21.6676ZM41.8915 20.6676L42.3082 19.4776L42.7148 20.6676H41.8915ZM44.9348 18.841H44.3815V21.6676H45.8948V21.2343H44.9448L44.9348 18.841ZM10.7415 4.44431C9.97263 4.42963 9.21394 4.62189 8.54484 5.00098C7.91871 5.36003 7.40857 5.89099 7.07484 6.53098C6.71809 7.22177 6.53827 7.99028 6.55151 8.76764C6.53938 9.54383 6.71915 10.311 7.07484 11.001C7.41033 11.6402 7.92303 12.1691 8.55151 12.5243C9.22388 12.8972 9.98282 13.0858 10.7515 13.071C11.4226 13.0824 12.0871 12.9362 12.6915 12.6443C13.23 12.3794 13.6982 11.9911 14.0582 11.511C14.3999 11.0505 14.6387 10.5218 14.7582 9.96098V8.33431H10.4748V9.54764H13.3415C13.2468 10.1317 12.9479 10.6632 12.4982 11.0476C12.0568 11.4082 11.5013 11.5997 10.9315 11.5876C10.5724 11.6059 10.2134 11.549 9.8776 11.4204C9.54179 11.2918 9.23656 11.0945 8.98151 10.841C8.47786 10.2707 8.22129 9.52372 8.26818 8.76431C8.25613 8.25868 8.36348 7.75734 8.58151 7.30098C8.77232 6.89956 9.07726 6.56332 9.45818 6.33431C9.8518 6.10675 10.3003 5.99146 10.7548 6.00098C11.2089 5.98637 11.6577 6.10203 12.0482 6.33431C12.4011 6.55141 12.6791 6.87128 12.8448 7.25098H14.6148C14.4477 6.42777 13.9824 5.69533 13.3082 5.19431C12.5593 4.66574 11.6576 4.39758 10.7415 4.43098V4.44431ZM19.1148 9.85764C20.0815 9.85764 20.8271 9.61764 21.3515 9.13764C21.6145 8.89137 21.8211 8.59101 21.9569 8.25726C22.0927 7.9235 22.1545 7.56427 22.1382 7.20431C22.1568 6.84329 22.099 6.48242 21.9686 6.14525C21.8382 5.80809 21.6382 5.50223 21.3815 5.24764C20.8704 4.76764 20.116 4.52764 19.1182 4.52764H16.0482V13.001H17.7148V9.85764H19.1148ZM18.9348 8.50098H17.7148V5.89764H18.9248C19.3337 5.85662 19.7425 5.97615 20.0648 6.23098C20.1868 6.3599 20.2808 6.51258 20.341 6.67948C20.4012 6.84638 20.4264 7.02392 20.4148 7.20098C20.4148 8.0632 19.9182 8.49542 18.9248 8.49764L18.9348 8.50098ZM32.5215 4.52764L31.2248 11.0943L29.5315 4.52764H27.6715L26.0048 11.0943L24.7082 4.52764H22.8748L24.9348 13.001H27.0115L28.6082 6.85764L30.1915 13.001H32.2815L34.3582 4.52764H32.5215ZM41.2548 13.001H43.0482L39.9382 4.62431H38.0048L34.8848 13.001H36.6715L37.2715 11.2976H40.6682L41.2548 13.001ZM37.7148 10.001L38.9615 6.42431L40.2115 10.001H37.7148Z" fill="#73777D"/>
</g>
<defs>
<clipPath id="clip0_8672_20618">
<rect width="48" height="24" fill="white" transform="translate(0.714844 0.000976562)"/>
</clipPath>
</defs>
</svg>
