<svg xmlns="http://www.w3.org/2000/svg" version="1.1" xmlns:xlink="http://www.w3.org/1999/xlink" width="24" height="24"><svg xmlns="http://www.w3.org/2000/svg" width="24" height="24" viewBox="0 0 24 24" fill="none"><path d="M0 12C0 5.37258 5.37258 0 12 0V0C18.6274 0 24 5.37258 24 12V12C24 18.6274 18.6274 24 12 24V24C5.37258 24 0 18.6274 0 12V12Z" fill="#0D3330"></path><path d="M9.33918 14.568C11.7287 14.1114 13.9194 12.9298 15.6131 11.1843C15.4581 10.4951 15.1087 9.86466 14.6063 9.36777C12.9023 11.0674 10.7223 12.2099 8.35461 12.6441C8.48325 13.3693 8.82617 14.0394 9.33918 14.568Z" fill="#0F9960"></path><path d="M8.72066 14.7269C8.14637 14.0347 7.80573 13.1788 7.74747 12.2815C7.68919 11.3841 7.91627 10.4914 8.39624 9.73085C8.87622 8.97032 9.58447 8.38098 10.4198 8.04711C11.255 7.71325 12.1745 7.65195 13.0467 7.87198C13.8359 7.05022 15.1948 6.20527 16.132 5.73929C15.0013 4.99367 13.6896 4.56799 12.3364 4.50749C10.9832 4.447 9.63879 4.75392 8.446 5.39567C7.25321 6.03742 6.25653 6.99007 5.56178 8.15246C4.86702 9.31485 4.50011 10.6436 4.5 11.9977V12.0044C4.5 12.0252 4.5 12.046 4.5 12.0668V12.0856C4.5085 12.9624 4.67121 13.831 4.98067 14.6515C6.21654 14.8635 7.47725 14.8888 8.72066 14.7269Z" fill="white"></path><path d="M19.5001 11.9973V11.9867C19.5001 11.947 19.5001 11.9069 19.5001 11.8673C19.5001 11.8499 19.5001 11.8325 19.5001 11.8146C19.5001 11.7798 19.5001 11.7445 19.4967 11.7097C19.4933 11.6749 19.4942 11.6522 19.4933 11.6237C19.4933 11.6183 19.4933 11.6125 19.4933 11.6072C19.4163 10.0839 18.8742 8.62082 17.94 7.41485H17.9357L17.8873 7.35104C17.0522 7.68071 15.82 8.36615 15.0236 8.99454C15.6188 9.59137 16.0237 10.3512 16.187 11.178C16.3503 12.0048 16.2648 12.8613 15.9412 13.6395C15.6175 14.4178 15.0704 15.0826 14.3688 15.5499C13.6673 16.0175 12.8429 16.2664 11.9998 16.2656C11.7959 16.2655 11.5923 16.2509 11.3905 16.2221C9.90638 16.7204 7.84296 17.0492 6.40045 16.9916C7.41192 18.1257 8.74421 18.9258 10.2208 19.2861C11.6975 19.6465 13.2487 19.5498 14.6692 19.0089C16.0896 18.4681 17.3121 17.5087 18.1748 16.2578C19.0375 15.0068 19.4997 13.5235 19.5001 12.0041V11.9973Z" fill="white"></path></svg><style>@media (prefers-color-scheme: light) { :root { filter: none; } }
@media (prefers-color-scheme: dark) { :root { filter: none; } }
</style></svg>